<svg xmlns="http://www.w3.org/2000/svg" viewBox="0 0 420.38 117.41"><defs><style>.cls-1{fill:#fff;}</style></defs><title>Asset 2</title><g id="Layer_2" data-name="Layer 2"><g id="Layer_1-2" data-name="Layer 1"><path class="cls-1" d="M190,38.3A23.8,23.8,0,0,1,206.78,45l3.64-3.52A29.2,29.2,0,0,0,190,33.08c-16.24,0-28.85,10.9-28.85,28.62S174.19,90.32,190,90.32a28.7,28.7,0,0,0,20.45-8.41l-3.75-3.74A23.78,23.78,0,0,1,190,85.1c-12.72,0-23.39-8.3-23.39-23.4S177.25,38.3,190,38.3Z"/><path class="cls-1" d="M252.21,32.73c-15.79,0-28.51,12.16-28.51,29,0,17.83,12.72,28.85,28.51,28.85,9,0,18.74-3.64,24.2-10.79l-4-3.18c-4.2,5.56-12.83,8.52-20.22,8.52-11.58,0-21.69-7.62-22.83-20.79h50.55C282.08,42.39,268,32.73,252.21,32.73Zm-22.83,26.7c1.25-13.75,11.25-21.58,22.83-21.58,13.52,0,22.6,7.72,22.72,21.58Z"/><path class="cls-1" d="M322.63,32.62c-7.84.11-15.67,3.3-20,11v-10h-5.45V89.75h5.57V58.52c0-11.59,8.06-20.33,19.64-20.45,12.16-.11,20,6.7,20,19.43V89.75H348V57.38C348,41.82,337.62,32.62,322.63,32.62Z"/><path class="cls-1" d="M413.72,45.91c-4.54-9.09-13.63-13.18-23.28-13.18-15.68,0-28.17,10.45-28.17,29s12.38,29,28.05,29c9.55,0,18.75-4.77,23.4-13.29V89.75h5.45V10.25h-5.45Zm-23.05,39.3c-12.61,0-22.95-7.95-22.95-23.51,0-15.79,10.34-23.63,22.95-23.63,12.94,0,22.94,9.54,22.94,23.51S403.84,85.21,390.67,85.21Z"/><path class="cls-1" d="M126,58.52c-7-1.25-16.81-2.73-17-10.22-.22-7.16,8.18-10.45,16.93-10.34,6.24,0,11.81.91,17.49,5.91l3.4-3.64c-5.56-5.22-12.72-7.5-20.89-7.5-11.36-.11-22.38,4.66-22.27,15.68.12,11.24,10.91,13.29,21.81,15.1,9.2,1.48,18.52,3.07,18.29,11.14-.34,8.85-10.68,10.67-17.49,10.67-7.5,0-15.9-2.84-20.56-9.54l-4.09,3.64c4.88,7.49,14.65,11.24,24.53,11.24S148.86,87.37,149.2,75C149.77,61.93,136,60.22,126,58.52Z"/><path class="cls-1" d="M134.81,6.08c-1.47.41-3,.92-4.66,1.42l-2.53.77c-.86.27-1.72.6-2.61.9-1.77.64-3.64,1.25-5.54,2l-5.85,2.31-6.1,2.65c-2.07.93-4.15,2-6.28,3s-4.23,2.18-6.4,3.29-4.27,2.37-6.44,3.57S84.12,28.48,82,29.79s-4.26,2.67-6.34,4.09-4,2.67-5.9,4.06l-.32.23-3.06,2.18-1.33,1-1.65,1.24c-4,3-7.77,6.06-11.39,9.1s-7,6.09-10.19,9.07-6.1,5.84-8.75,8.55c-1.68,1.71-3.24,3.36-4.68,4.92L53.91,16.15l10.59,24,4.67-3.49L57.32,10.25h-6.7L0,117.41H6.21l0,0,.9-1.21c.59-.77,16.26-29.37,17.1-30.43,1.34-1.71,3-3.75,5-6.06S33.41,74.8,36,72.06s5.32-5.68,8.37-8.68,6.33-6.11,9.79-9.25,7.15-6.26,11-9.32L66.18,44l20.21,45.8H93L70.82,40.35l.13-.1c2-1.52,4-3,6-4.42S81.09,33,83.14,31.6s4.17-2.69,6.25-4,4.19-2.53,6.28-3.73,4.17-2.36,6.25-3.44,4.12-2.15,6.15-3.14l6-2.81L119.81,12c1.86-.78,3.7-1.44,5.45-2.13.88-.33,1.73-.69,2.58-1l2.49-.85C132,7.5,133.48,7,134.94,6.5c2.93-.85,5.47-1.65,7.59-2.21l6.69-1.67-6.74,1.47C140.34,4.59,137.77,5.32,134.81,6.08Z"/><path class="cls-1" d="M29.85,117V103.6h9.67v2.45H32.39v3.67h6.75v2.34H32.39v5Z"/><path class="cls-1" d="M60.39,103.6v7.71c0,4-2.45,6-5.83,6a5.62,5.62,0,0,1-6-6V103.6H51.1v7.71c0,2.43,1.38,3.72,3.48,3.72s3.29-1.41,3.29-3.72V103.6Z"/><path class="cls-1" d="M79,103.57h2.54V117H80v0L72.91,108V117H70.37V103.59h2.06L79,111.93Z"/><path class="cls-1" d="M103,110.2c.06,3.4-2,6.84-6.73,6.84H91V103.59h5.29C100.93,103.59,103,106.87,103,110.2Zm-9.5,4.4h2.77a4.31,4.31,0,0,0,0-8.61H93.54Z"/><path class="cls-1" d="M124,117h-3L117,112.55h-2.44V117H112V103.57l6.41,0c3.17,0,4.84,2.13,4.84,4.46a4,4,0,0,1-3.4,4.23l4.07,4.59ZM114.58,106v4.31h3.87a2.16,2.16,0,1,0,0-4.31Z"/><path class="cls-1" d="M141.87,114.51h-7L133.68,117h-2.75l6-13.45h2.77l6,13.45H143Zm-3.52-8.1-2.5,5.73h5Z"/><path class="cls-1" d="M154.05,117V103.59h2.51V117Z"/><path class="cls-1" d="M175,106.84a3.85,3.85,0,0,0-3.19-1.5c-1.89,0-2.79.78-2.79,1.78,0,1.18,1.38,1.5,3,1.7,2.8.34,5.42,1.07,5.42,4.28,0,3-2.65,4.29-5.65,4.29-2.75,0-4.87-.85-5.87-3.31L168,113a3.83,3.83,0,0,0,3.79,2.13c1.59,0,3.09-.56,3.09-2,0-1.27-1.33-1.79-3.11-2-2.75-.32-5.29-1.06-5.29-4.07,0-2.77,2.73-3.91,5.21-3.93,2.1,0,4.27.6,5.29,2.68Z"/><path class="cls-1" d="M186.68,117V103.59h2.52V117Z"/><path class="cls-1" d="M207.74,103.57h2.54V117H208.7v0L201.62,108V117h-2.53V103.59h2l6.6,8.34Z"/><path class="cls-1" d="M229.91,106.87a5.17,5.17,0,0,0-3.42-1.34c-2.89,0-4.63,2.19-4.63,5a4.26,4.26,0,0,0,4.63,4.5,4.46,4.46,0,0,0,3-1.08v-2.38h-3.44v-2.27h5.76v5.67a6.69,6.69,0,0,1-5.36,2.42c-5.06,0-7.11-3.32-7.11-6.86,0-3.79,2.36-7.29,7.11-7.29a7.1,7.1,0,0,1,5,2.06Z"/><path class="cls-1" d="M260.74,106.84a3.85,3.85,0,0,0-3.19-1.5c-1.89,0-2.79.78-2.79,1.78,0,1.18,1.38,1.5,3,1.7,2.81.34,5.42,1.07,5.42,4.28,0,3-2.65,4.29-5.65,4.29-2.75,0-4.87-.85-5.87-3.31l2.12-1.09a3.84,3.84,0,0,0,3.79,2.13c1.59,0,3.09-.56,3.09-2,0-1.27-1.32-1.79-3.11-2-2.75-.32-5.29-1.06-5.29-4.07,0-2.77,2.73-3.91,5.21-3.93,2.1,0,4.27.6,5.29,2.68Z"/><path class="cls-1" d="M285.68,110.39c0,3.48-2.17,7-6.9,7s-6.92-3.4-6.92-6.94,2.27-7.09,6.92-7.09A6.68,6.68,0,0,1,285.68,110.39Zm-11.32.06c.05,2.21,1.25,4.58,4.42,4.58s4.36-2.39,4.4-4.6-1.23-4.81-4.4-4.81S274.3,108.18,274.36,110.45Z"/><path class="cls-1" d="M297.4,103.59V114.7h6.92V117h-9.46V103.59Z"/><path class="cls-1" d="M324.43,103.6v7.71c0,4-2.44,6-5.82,6a5.62,5.62,0,0,1-6-6V103.6h2.52v7.71c0,2.43,1.38,3.72,3.48,3.72s3.28-1.41,3.28-3.72V103.6Z"/><path class="cls-1" d="M337.71,105.89h-4.27v-2.3h11.07v2.3h-4.27V117h-2.53Z"/><path class="cls-1" d="M353.38,117V103.59h2.52V117Z"/><path class="cls-1" d="M379.22,110.39c0,3.48-2.17,7-6.9,7s-6.92-3.4-6.92-6.94,2.27-7.09,6.92-7.09A6.68,6.68,0,0,1,379.22,110.39Zm-11.32.06c.06,2.21,1.25,4.58,4.42,4.58s4.37-2.39,4.4-4.6-1.23-4.81-4.4-4.81S367.84,108.18,367.9,110.45Z"/><path class="cls-1" d="M397.24,103.57h2.54V117h-1.57v0L391.13,108V117h-2.54V103.59h2.06l6.59,8.34Z"/><path class="cls-1" d="M417.94,106.84a3.85,3.85,0,0,0-3.19-1.5c-1.89,0-2.79.78-2.79,1.78,0,1.18,1.38,1.5,3,1.7,2.8.34,5.42,1.07,5.42,4.28,0,3-2.65,4.29-5.65,4.29-2.75,0-4.87-.85-5.87-3.31L411,113a3.82,3.82,0,0,0,3.78,2.13c1.6,0,3.1-.56,3.1-2,0-1.27-1.33-1.79-3.11-2-2.75-.32-5.29-1.06-5.29-4.07,0-2.77,2.73-3.91,5.21-3.93,2.09,0,4.27.6,5.29,2.68Z"/><path class="cls-1" d="M173.63,10.67h-4.15V15H166.7V.29l6.93,0C180.81.27,180.83,10.67,173.63,10.67Zm-4.15-2.55h4.15a2.6,2.6,0,1,0,0-5.2h-4.15Z"/><path class="cls-1" d="M205.85,7.73c0,3.8-2.38,7.6-7.54,7.6s-7.56-3.72-7.56-7.58S193.23,0,198.31,0,205.89,3.88,205.85,7.73Zm-12.37.06c.06,2.41,1.36,5,4.83,5s4.76-2.61,4.81-5-1.35-5.25-4.81-5.25S193.42,5.31,193.48,7.79Z"/><path class="cls-1" d="M233.61,15h-2.35l-1.83-4.62-1.55-4.64-1.54,4.68L224.56,15h-2.35L216.81.29h3.11l3.46,10.61L227,.29h1.81l3.67,10.61L235.79.29h3.11Z"/><path class="cls-1" d="M262.06,15h-11V.29h11V3h-8.25V6.36h8V8.94h-8v3.32h8.25Z"/><path class="cls-1" d="M287.75,15h-3.3l-4.28-4.91H277.5V15h-2.77V.27l7,0c3.46,0,5.29,2.33,5.29,4.88a4.35,4.35,0,0,1-3.72,4.61l4.46,5ZM277.5,2.88v4.7h4.22a2.3,2.3,0,0,0,2.52-2.35,2.3,2.3,0,0,0-2.52-2.35Z"/><path class="cls-1" d="M310.34,15h-11V.29h11V3h-8.25V6.36h8V8.94h-8v3.32h8.25Z"/><path class="cls-1" d="M335.92,7.52c.06,3.71-2.21,7.47-7.35,7.47H322.8V.29h5.77C333.61.29,335.86,3.88,335.92,7.52Zm-10.37,4.8h3c3.34,0,4.66-2.43,4.6-4.82a4.37,4.37,0,0,0-4.6-4.58h-3Z"/><path class="cls-1" d="M374.94,4.56A3,3,0,0,1,373,7.39a3.59,3.59,0,0,1,2.35,3.28c0,3.27-2.46,4.32-5.5,4.32h-7V.29h7C372.78.29,374.94,1.6,374.94,4.56Zm-9.3,1.63h4.24c1.74,0,2.31-.73,2.31-1.57,0-.67-.55-1.81-2.31-1.81h-4.24Zm0,6.22h4.24c1.13,0,2.75-.38,2.75-1.77s-1.62-2-2.75-2h-4.24Z"/><path class="cls-1" d="M393.15,6.36l3.9-6.07h3.34V.42l-5.86,8.5V15h-2.77V8.92L386.11.42V.29h3.3Z"/></g></g></svg>