<?xml version="1.0" encoding="utf-8"?>
<svg xmlns="http://www.w3.org/2000/svg" viewBox="0 0 72.49 23.61"><defs><style>.cls-1{fill:#fff;}</style></defs><title>VISA</title><g id="Layer_2" data-name="Layer 2"><g id="Layer_1-2" data-name="Layer 1"><path class="cls-1" d="M31.41,23.27H25.54L29.22.41h5.87ZM52.7,1a14.42,14.42,0,0,0-5.26-1c-5.8,0-9.89,3.11-9.91,7.56-.05,3.28,2.92,5.11,5.14,6.2s3,1.85,3,2.85c0,1.53-1.84,2.23-3.53,2.23a11.66,11.66,0,0,1-5.51-1.21l-.77-.37-.82,5.13a17.45,17.45,0,0,0,6.55,1.22c6.16,0,10.17-3.06,10.22-7.81,0-2.6-1.55-4.59-4.93-6.22-2.06-1.05-3.31-1.75-3.31-2.82s1.06-2,3.38-2a9.76,9.76,0,0,1,4.37.88l.53.24L52.7,1Zm7.81,14.2,2.35-6.39c0,.05.48-1.34.77-2.19l.41,2s1.11,5.47,1.35,6.61ZM67.76.41H63.22a2.89,2.89,0,0,0-3.07,1.9l-8.73,21h6.16l1.24-3.43h7.54c.16.8.7,3.43.7,3.43h5.43L67.76.41ZM20.64.41,14.89,16l-.63-3.16A17.49,17.49,0,0,0,6.14,3.26l5.27,20h6.21L26.85.42H20.64Z"/><path class="cls-1" d="M9.54.41H.1L0,.88c7.37,1.89,12.25,6.46,14.26,12L12.2,2.34A2.41,2.41,0,0,0,9.54.42Z"/></g></g></svg>