<?xml version="1.0" encoding="utf-8"?>
<!-- Generator: Adobe Illustrator 24.0.2, SVG Export Plug-In . SVG Version: 6.00 Build 0)  -->
<svg version="1.1" id="Layer_1" xmlns="http://www.w3.org/2000/svg" xmlns:xlink="http://www.w3.org/1999/xlink" x="0px" y="0px"
	 viewBox="0 0 792 612" style="enable-background:new 0 0 792 612;" xml:space="preserve">
<style type="text/css">
	.st0{fill:#FFFFFF;}
</style>
<path class="st0" d="M156,596.3v-38.9c0-14.6-9.3-24.5-24.3-24.6c-7.9-0.1-16.1,2.3-21.8,11c-4.3-6.9-11-11-20.5-11
	c-6.6,0-13.1,1.9-18.1,9.2v-7.6H57.9v61.9h13.6V562c0-10.7,6-16.4,15.2-16.4c8.9,0,13.5,5.8,13.5,16.3v34.4h13.6V562
	c0-10.7,6.2-16.4,15.2-16.4c9.2,0,13.6,5.8,13.6,16.3v34.4H156z M357.3,534.4h-22v-18.8h-13.6v18.8h-12.6v12.3h12.6V575
	c0,14.4,5.6,22.9,21.5,22.9c5.8,0,12.6-1.8,16.8-4.8l-3.9-11.5c-4,2.3-8.4,3.5-11.9,3.5c-6.7,0-8.9-4.1-8.9-10.4v-28h22V534.4z
	 M472.1,532.9c-7.8,0-12.8,3.6-16.3,9.1v-7.5h-13.3v61.9H456v-34.7c0-10.2,4.4-15.9,13.2-15.9c2.7,0,5.6,0.4,8.4,1.6l4.1-12.7
	C478.7,533.4,474.9,532.9,472.1,532.9L472.1,532.9z M298.5,539.4c-6.5-4.3-15.4-6.5-25.3-6.5c-15.7,0-25.8,7.5-25.8,19.8
	c0,10.1,7.5,16.3,21.4,18.3l6.3,0.9c7.4,1,10.9,3,10.9,6.5c0,4.8-4.9,7.5-14.1,7.5c-9.3,0-16.1-3-20.6-6.5l-6.3,10.5
	c7.4,5.4,16.7,8,26.8,8c17.9,0,28.2-8.4,28.2-20.2c0-10.9-8.2-16.6-21.6-18.5l-6.3-0.9c-5.8-0.8-10.5-1.9-10.5-6.1
	c0-4.5,4.4-7.3,11.8-7.3c7.9,0,15.5,3,19.3,5.3L298.5,539.4z M659.3,532.9c-7.8,0-12.8,3.6-16.3,9.1v-7.5h-13.3v61.9h13.5v-34.7
	c0-10.2,4.4-15.9,13.2-15.9c2.7,0,5.6,0.4,8.4,1.6l4.1-12.7C665.9,533.4,662,532.9,659.3,532.9L659.3,532.9z M485.7,565.4
	c0,18.8,13.1,32.5,33,32.5c9.3,0,15.5-2.1,22.3-7.4l-6.5-10.9c-5.1,3.6-10.4,5.6-16.2,5.6c-10.7-0.1-18.6-7.9-18.6-19.8
	c0-11.9,7.9-19.7,18.6-19.8c5.8,0,11.1,1.9,16.2,5.6l6.5-10.9c-6.7-5.3-12.9-7.4-22.3-7.4C498.8,532.9,485.7,546.6,485.7,565.4
	L485.7,565.4z M611.9,565.4v-30.9h-13.5v7.5c-4.3-5.6-10.7-9.1-19.6-9.1c-17.4,0-30.9,13.6-30.9,32.5c0,18.9,13.6,32.5,30.9,32.5
	c8.8,0,15.3-3.5,19.6-9.1v7.5h13.5V565.4z M561.8,565.4c0-10.9,7.1-19.8,18.8-19.8c11.1,0,18.6,8.5,18.6,19.8
	c0,11.3-7.5,19.8-18.6,19.8C568.9,585.2,561.8,576.3,561.8,565.4L561.8,565.4z M399.2,532.9c-18.1,0-30.8,13.2-30.8,32.5
	c0,19.7,13.2,32.5,31.7,32.5c9.3,0,17.9-2.3,25.4-8.7l-6.6-10c-5.2,4.1-11.8,6.5-18,6.5c-8.7,0-16.6-4-18.5-15.2h46
	c0.1-1.7,0.3-3.4,0.3-5.2C428.5,546.1,416.6,532.9,399.2,532.9L399.2,532.9z M399,544.9c8.7,0,14.2,5.4,15.7,15h-32.1
	C384,551,389.4,544.9,399,544.9L399,544.9z M736.8,565.4v-55.8h-13.5v32.4c-4.3-5.6-10.7-9.1-19.6-9.1c-17.4,0-31,13.6-31,32.5
	c0,18.9,13.6,32.5,31,32.5c8.8,0,15.3-3.5,19.6-9.1v7.5h13.5V565.4z M686.7,565.4c0-10.9,7.1-19.8,18.8-19.8
	c11.1,0,18.6,8.5,18.6,19.8c0,11.3-7.5,19.8-18.6,19.8C693.8,585.2,686.7,576.3,686.7,565.4L686.7,565.4z M231.9,565.4v-30.9h-13.5
	v7.5c-4.3-5.6-10.7-9.1-19.6-9.1c-17.4,0-30.9,13.6-30.9,32.5c0,18.9,13.6,32.5,30.9,32.5c8.8,0,15.3-3.5,19.6-9.1v7.5h13.5V565.4z
	 M181.8,565.4c0-10.9,7.1-19.8,18.8-19.8c11.1,0,18.6,8.5,18.6,19.8c0,11.3-7.5,19.8-18.6,19.8C188.9,585.2,181.8,576.3,181.8,565.4
	z M759.3,587.4c0.9,0,1.7,0.2,2.4,0.5c0.8,0.3,1.4,0.8,2,1.3c0.6,0.6,1,1.2,1.3,2c0.3,0.7,0.5,1.5,0.5,2.4c0,0.8-0.2,1.6-0.5,2.4
	c-0.3,0.7-0.8,1.4-1.3,2c-0.6,0.6-1.2,1-2,1.3c-0.8,0.3-1.6,0.5-2.4,0.5c-0.9,0-1.7-0.2-2.5-0.5c-0.8-0.3-1.4-0.8-2-1.3
	c-0.6-0.6-1-1.2-1.3-2c-0.3-0.7-0.5-1.5-0.5-2.4c0-0.8,0.2-1.6,0.5-2.4s0.8-1.4,1.3-2c0.6-0.6,1.2-1,2-1.3
	C757.6,587.5,758.4,587.4,759.3,587.4z M759.3,598.3c0.7,0,1.3-0.1,1.9-0.4c0.6-0.3,1.1-0.6,1.5-1c0.4-0.4,0.8-0.9,1-1.5
	c0.2-0.6,0.4-1.2,0.4-1.9c0-0.7-0.1-1.3-0.4-1.9c-0.2-0.6-0.6-1.1-1-1.5c-0.4-0.4-0.9-0.8-1.5-1c-0.6-0.2-1.2-0.4-1.9-0.4
	c-0.7,0-1.3,0.1-1.9,0.4c-0.6,0.2-1.1,0.6-1.5,1c-0.4,0.4-0.8,0.9-1,1.5c-0.2,0.6-0.4,1.2-0.4,1.9c0,0.7,0.1,1.3,0.4,1.9
	c0.2,0.6,0.6,1.1,1,1.5c0.4,0.4,0.9,0.8,1.5,1C758,598.2,758.6,598.3,759.3,598.3z M759.6,590.6c0.7,0,1.3,0.2,1.7,0.5
	c0.4,0.3,0.6,0.8,0.6,1.3c0,0.5-0.2,0.9-0.5,1.2c-0.3,0.3-0.8,0.5-1.4,0.6l1.9,2.2h-1.5l-1.7-2.1h-0.6v2.1H757v-5.7H759.6z
	 M758.2,591.7v1.5h1.4c0.3,0,0.6-0.1,0.8-0.2c0.2-0.1,0.3-0.3,0.3-0.6c0-0.3-0.1-0.4-0.3-0.6c-0.2-0.1-0.4-0.2-0.8-0.2H758.2z
	 M750.9,390.4v-7.5h3v-1.5h-7.7v1.5h3v7.5H750.9z M765.9,390.4v-9h-2.4l-2.7,6.2l-2.7-6.2h-2.4v9h1.7v-6.8l2.5,5.9h1.7l2.5-5.9v6.8
	H765.9z M375.3,435.5c1.8,1.6,3.7,3.1,5.6,4.7c-37,24.6-81.3,39-129.1,39C123.2,479.1,18.8,374.7,18.8,246S123.2,12.8,251.9,12.8
	c47.7,0,92.1,14.4,129.1,39c-1.9,1.5-3.8,3.1-5.6,4.7c-54.9,47.8-86.4,116.9-86.4,189.5C288.9,318.6,320.4,387.7,375.3,435.5z
	 M540.1,12.8c-47.7,0-92.1,14.4-129.1,39c1.9,1.6,3.8,3.1,5.6,4.7c54.9,47.8,86.4,116.9,86.4,189.5c0,72.6-31.5,141.7-86.4,189.5
	c-1.8,1.6-3.7,3.1-5.6,4.7c37,24.6,81.3,39,129.1,39c128.8,0,233.1-104.4,233.1-233.1C773.2,117.2,668.8,12.8,540.1,12.8z M396,62.8
	c-3,2.4-5.9,4.8-8.8,7.3C338.1,112.8,307,175.7,307,246c0,70.2,31.1,133.2,80.2,175.9c2.9,2.5,5.8,4.9,8.8,7.3
	c3-2.4,5.9-4.8,8.8-7.3C453.9,379.1,485,316.2,485,246c0-70.2-31.1-133.2-80.2-175.9C401.9,67.6,399,65.1,396,62.8"/>
</svg>
