<svg xmlns="http://www.w3.org/2000/svg" viewBox="0 0 47.9 16.38"><defs><style>.cls-1{fill:#fff;}</style></defs><title>Amex</title><g id="Layer_2" data-name="Layer 2"><g id="Capa_1" data-name="Capa 1"><polygon class="cls-1" points="34.55 1.8 33.67 3.94 35.44 3.94 34.55 1.8"/><path class="cls-1" d="M41.51,9.24H38.94a2.92,2.92,0,0,0-1.69.46.87.87,0,0,0-.76-.46H32.21a.86.86,0,0,0-.78.49l-.17-.14a4,4,0,0,0-2-.35h-3a.87.87,0,0,0-.78.49,3.57,3.57,0,0,0-2-.49h-4.1a.88.88,0,0,0-.65.28l-1,1.05-.93-1a.88.88,0,0,0-.66-.29H11.1a.87.87,0,0,0-.88.88v5.37a.88.88,0,0,0,.88.89h5.08a.89.89,0,0,0,.65-.29l1-1.06.93,1a.89.89,0,0,0,.66.3h2.5a.88.88,0,0,0,.88-.89v-.91h.72a3.79,3.79,0,0,0,1.95-.45v1.36a.88.88,0,0,0,.88.89h1.29a.89.89,0,0,0,.89-.89V14.42h.74c0,.1,0,.21,0,.29v.78a.88.88,0,0,0,.88.89h1.29a.87.87,0,0,0,.39-.1.87.87,0,0,0,.39.1h4.28a.87.87,0,0,0,.39-.1.8.8,0,0,0,.38.1h2.5a3.32,3.32,0,0,0,1.93-.54.89.89,0,0,0,.81.54H45c1.82,0,2.9-1,2.9-2.58A2.36,2.36,0,0,0,47.26,12l0,0a.87.87,0,0,0,.41-.74V10.12a.88.88,0,0,0-.89-.88H44.18a2.81,2.81,0,0,0-1.84.59A.88.88,0,0,0,41.51,9.24Zm-18,4.45H21.9v1.8H19.4l-1.58-1.77-1.64,1.77H11.1V10.12h5.16l1.58,1.76,1.63-1.76h4.1c1,0,2.16.29,2.16,1.77S24.62,13.69,23.5,13.69Zm7.72-.24a1.52,1.52,0,0,1,.21,1v1.06H30.14v-.67a1.64,1.64,0,0,0-.2-1.05,1.28,1.28,0,0,0-1-.24H27.62v2H26.34V10.12h3a3.09,3.09,0,0,1,1.54.26,1.24,1.24,0,0,1,.66,1.19A1.51,1.51,0,0,1,30.59,13,1.37,1.37,0,0,1,31.22,13.45Zm5.27-2.22h-3v1h2.93V13.3H33.49v1.07h3v1.11H32.21V10.12h4.28Zm3.27,4.26h-2.5V14.34h2.49a.69.69,0,0,0,.52-.14.48.48,0,0,0,0-.7.69.69,0,0,0-.46-.12c-1.2,0-2.7,0-2.7-1.66a1.6,1.6,0,0,1,1.83-1.6h2.57v1.14H39.16a.85.85,0,0,0-.51.1.43.43,0,0,0-.2.39.42.42,0,0,0,.28.4,1.46,1.46,0,0,0,.5.06l.69,0a2,2,0,0,1,1.47.43,1.48,1.48,0,0,1,.39,1.13C41.78,15,41.05,15.49,39.76,15.49Zm4.42-5.37h2.58v1.14H44.4a.85.85,0,0,0-.51.1.46.46,0,0,0,.08.79,1.46,1.46,0,0,0,.5.06l.69,0a2,2,0,0,1,1.47.43A1.48,1.48,0,0,1,47,13.79c0,1.16-.72,1.7-2,1.7H42.51V14.34H45a.73.73,0,0,0,.53-.14.5.5,0,0,0,.15-.35.46.46,0,0,0-.16-.35.69.69,0,0,0-.46-.12c-1.2,0-2.7,0-2.7-1.66A1.6,1.6,0,0,1,44.18,10.12Z"/><polygon class="cls-1" points="20.62 15 20.62 10.7 18.65 12.82 20.62 15"/><polygon class="cls-1" points="12.38 11.23 12.38 12.21 15.2 12.21 15.2 13.31 12.38 13.31 12.38 14.38 15.53 14.38 17 12.8 15.6 11.23 12.38 11.23"/><path class="cls-1" d="M23.57,11.23H21.9V12.6h1.65c.5,0,.8-.24.8-.71S24,11.23,23.57,11.23Z"/><path class="cls-1" d="M24.32,3.09a.55.55,0,0,0,.27-.51.5.5,0,0,0-.27-.48A1.43,1.43,0,0,0,23.71,2H22.13V3.2h1.56A1.23,1.23,0,0,0,24.32,3.09Z"/><path class="cls-1" d="M29.81,11.33a1.26,1.26,0,0,0-.61-.1H27.62v1.21h1.56a1.29,1.29,0,0,0,.64-.11.6.6,0,0,0,.26-.52A.52.52,0,0,0,29.81,11.33Z"/><polygon class="cls-1" points="4.11 1.8 3.23 3.94 4.98 3.94 4.11 1.8"/><path class="cls-1" d="M.89,7.14H2.28a.89.89,0,0,0,.82-.55l.27-.65H4.85l.27.65a.89.89,0,0,0,.82.55H8.55a.88.88,0,0,0,.88-.89v0l.17.38a.89.89,0,0,0,.81.53h1.13a.89.89,0,0,0,.81-.53l.17-.38v0a.88.88,0,0,0,.88.88h1.32A.89.89,0,0,0,15.2,7a.86.86,0,0,0,.48.16H20A.82.82,0,0,0,20.4,7a.88.88,0,0,0,.45.14h1.28A.89.89,0,0,0,23,6.25V5.19h.74V6.26a.89.89,0,0,0,.89.88h1.29a.77.77,0,0,0,.4-.11.83.83,0,0,0,.4.11h1.31a.89.89,0,0,0,.86-.71,3.7,3.7,0,0,0,2.32.71h1.5a.89.89,0,0,0,.82-.55l.26-.65h1.48l.27.65a.89.89,0,0,0,.82.55H39a.88.88,0,0,0,.88-.89V5.41l.79,1.3a.88.88,0,0,0,.76.43h1.82a.88.88,0,0,0,.88-.89V.89A.88.88,0,0,0,43.24,0H41.93A.89.89,0,0,0,41,.89v.55l-.61-1A.88.88,0,0,0,39.67,0h-2a.89.89,0,0,0-.89.89v.75L36.36.54A.88.88,0,0,0,35.54,0H33.62a.91.91,0,0,0-.53.18A.87.87,0,0,0,32.56,0H31.32a3.54,3.54,0,0,0-2.4.75A.88.88,0,0,0,28.06,0H26.75A.88.88,0,0,0,26,.5,1.67,1.67,0,0,0,25.8.38a3.78,3.78,0,0,0-2-.38H20.85a.82.82,0,0,0-.44.14A.88.88,0,0,0,20,0H15.68a.89.89,0,0,0-.48.16A.89.89,0,0,0,14.72,0H12.58a.88.88,0,0,0-.81.54L11,2.34,10.17.52A.89.89,0,0,0,9.36,0H7.27a.89.89,0,0,0-.89.89v.77L5.9.54A.88.88,0,0,0,5.09,0H3.18a.88.88,0,0,0-.81.54L.07,5.9a.87.87,0,0,0,.08.84A.88.88,0,0,0,.89,7.14ZM29.37,1.51A2.64,2.64,0,0,1,31.32.89h1.24V2H31.35a1.22,1.22,0,0,0-1,.32A1.74,1.74,0,0,0,30,3.57a1.84,1.84,0,0,0,.35,1.26,1.26,1.26,0,0,0,.9.28h.57L33.62.89h1.92L37.72,6V.89h2l2.26,3.74V.89h1.31V6.26H41.42L39,2.23v4H36.38l-.5-1.2H33.21l-.48,1.2h-1.5a2.71,2.71,0,0,1-1.86-.6,2.69,2.69,0,0,1-.69-2.05A2.88,2.88,0,0,1,29.37,1.51Zm2.42,1.41-.56,1.3L31,4.2a1.44,1.44,0,0,1-.1-.63A1.37,1.37,0,0,1,31,3s.07-.07.37-.07Zm-5-2h1.31V6.26H26.75Zm-5.9,0H23.8a3,3,0,0,1,1.55.25A1.25,1.25,0,0,1,26,2.33a1.5,1.5,0,0,1-.9,1.43,1.45,1.45,0,0,1,.63.46,1.52,1.52,0,0,1,.21,1v1H24.65V5.58a1.58,1.58,0,0,0-.2-1c-.18-.19-.47-.23-.93-.23H22.13v2H20.85Zm-5.18,0H20V2H17V3h2.93v1.1H17V5.14h3V6.25H15.67ZM3.18.89H5.09L7.27,6V.89H9.36L11,4.53,12.58.89h2.14V6.25H13.41V2.05l-1.86,4.2H10.41L8.55,2.05v4.2H5.94L5.45,5.06H2.78l-.5,1.19H.88Z"/></g></g></svg>