<svg xmlns="http://www.w3.org/2000/svg" viewBox="0 0 104.5 81.64"><defs><style>.cls-1{fill:#0099df;}.cls-2{fill:#6c6bbd;}.cls-3{fill:#eb001b;}.cls-4{fill:#fff;}</style></defs><title>maestro-white</title><g id="Layer_2" data-name="Layer 2"><g id="Layer_1-2" data-name="Layer 1"><path class="cls-1" d="M103.51,52.71V51.48h-.41l-.41.82-.41-.82h-.41v1.23h.21v-1l.41.83h.2l.41-.83v1Zm-2.05,0v-1h.41v-.2h-1v.2h.41v1Z"/><path class="cls-2" d="M66.35,58H38.07V7.21H66.35Z"/><path class="cls-3" d="M39.88,32.68A32.25,32.25,0,0,1,52.21,7.19a32.67,32.67,0,0,0-19.94-7A32.27,32.27,0,1,0,52.21,57.76,30.86,30.86,0,0,1,39.88,32.68"/><path class="cls-1" d="M104.5,32.68A32.18,32.18,0,0,1,52.29,58,31.93,31.93,0,0,0,64.62,32.48,31.93,31.93,0,0,0,52.29,7,32.62,32.62,0,0,1,72.23,0,32.81,32.81,0,0,1,104.5,32.68"/><path class="cls-4" d="M75.89,72.46a2.54,2.54,0,0,1,1.23.21l-.41,1.85a2.54,2.54,0,0,0-1.23-.21c-1.24,0-1.85.82-1.85,2.26V81.3H71.78V72.67h1.85v1a2.36,2.36,0,0,1,2.26-1.23m-7,1.85H65.82v3.91c0,.82.2,1.43,1.23,1.43a6.09,6.09,0,0,0,1.64-.41l.62,1.65a4.16,4.16,0,0,1-2.26.61c-2.26,0-2.88-1.23-2.88-3.08v-3.9H62.53V72.87h1.64V70.2H66v2.67h3.09ZM45.06,76.16a2.27,2.27,0,0,1,4.52,0Zm6.37.82c0-2.67-1.65-4.52-4.11-4.52a4.52,4.52,0,0,0,0,9,5.59,5.59,0,0,0,3.49-1.23L50,78.83a3.59,3.59,0,0,1-2.47.82,2.27,2.27,0,0,1-2.46-2.05h6.37V77m8.22-2A4.57,4.57,0,0,0,57,74.1c-1,0-1.65.42-1.65,1S56,76,56.77,76l.82.21c2.06.21,3.09,1,3.09,2.47,0,1.64-1.44,2.87-3.91,2.87a7.16,7.16,0,0,1-3.7-1L53.89,79a5.36,5.36,0,0,0,2.88.82c1.24,0,2.06-.41,2.06-1,0-.41-.41-.82-1.44-.82l-.82-.21c-1.85-.2-2.88-1.23-2.88-2.46,0-1.65,1.44-2.67,3.49-2.67a5.87,5.87,0,0,1,3.5.82Zm23-.62a1.83,1.83,0,0,0-1,.21,1.06,1.06,0,0,0-.82.41,4.68,4.68,0,0,0-.62,1,2.75,2.75,0,0,0,0,2.06,2.94,2.94,0,0,0,.62.82c.21.21.62.41.82.62.41.2.62.41,1,.41a1.53,1.53,0,0,0,1-.21c.41-.2.62-.41,1-.61.2-.21.41-.62.61-.82a1.84,1.84,0,0,0,.21-1,1.53,1.53,0,0,0-.21-1,6.68,6.68,0,0,0-.61-1.23c-.41-.21-.62-.41-1-.41a1.53,1.53,0,0,0-1-.21m0-1.85a6.16,6.16,0,0,1,1.85.41A5.41,5.41,0,0,1,87,75.34a6.1,6.1,0,0,1,.41,1.85A4.94,4.94,0,0,1,87,78.83a3.72,3.72,0,0,1-1,1.44,3.25,3.25,0,0,1-1.44.82,4.38,4.38,0,0,1-3.7,0,3.25,3.25,0,0,1-1.44-.82,9.13,9.13,0,0,1-1-1.44,5.81,5.81,0,0,1-.2-1.85,5.94,5.94,0,0,1,.41-1.85,3.8,3.8,0,0,1,1-1.44,3.6,3.6,0,0,1,1.44-1c.41,0,1-.21,1.64-.21M34.16,77a2.68,2.68,0,1,1,2.67,2.67A2.59,2.59,0,0,1,34.16,77m7,0V72.67H39.3v1a3.06,3.06,0,0,0-2.67-1.23,4.52,4.52,0,0,0,0,9,3.06,3.06,0,0,0,2.67-1.23v1h1.85ZM30.67,81.3V76a3.19,3.19,0,0,0-3.29-3.49A4,4,0,0,0,24.3,73.9a3.62,3.62,0,0,0-2.88-1.44A2.71,2.71,0,0,0,19,73.69v-1H17.1V81.3H19V76.57A2,2,0,0,1,21,74.31c1.23,0,1.85.82,1.85,2.26V81.3h1.85V76.57a2,2,0,0,1,2.05-2.26c1.24,0,1.85.82,1.85,2.26V81.3Z"/><path class="cls-4" d="M89.37,80.62v.2h.41c-.2-.2-.2-.2-.41-.2Zm.21-.21h.2v.41h-.2l.2.21h-.41v.2h-.2v-.82Zm0,1h.2a.21.21,0,0,0,.21-.21.2.2,0,0,1,.2-.2v-.41a.2.2,0,0,0-.2-.21.21.21,0,0,1-.21-.21h-.41a.2.2,0,0,0-.2.21.21.21,0,0,1-.21.21V81a.2.2,0,0,0,.21.2.2.2,0,0,1,.2.21h.21m0-1.44H90a.2.2,0,0,1,.2.2l.21.21v.82a.21.21,0,0,1-.21.21l-.2.2h-.82a.2.2,0,0,1-.21-.2l-.2-.21v-.82a.2.2,0,0,1,.2-.21l.21-.2h.41"/></g></g></svg>