<svg width="1012" height="261" viewBox="0 0 1012 261" fill="none" xmlns="http://www.w3.org/2000/svg">
<rect x="5" y="65" width="1002" height="191" rx="38" fill="#E5E5E5" stroke="white" stroke-width="10"/>
<path d="M302.935 171.844L294 151L337 171.844L294 197L302.935 171.844Z" fill="black" fill-opacity="0.55"/>
<path d="M670.935 171.844L662 151L705 171.844L662 197L670.935 171.844Z" fill="black" fill-opacity="0.55"/>
<path d="M150.483 94.7554H186.053C200.979 94.7554 213.243 105.128 213.243 111.231V130.979C213.243 144.622 200.15 117.136 185.18 117.136H149.61C134.64 117.096 123.292 144.622 123.292 130.939V111.192C123.292 103.532 135.513 94.7554 150.483 94.7554Z" fill="#0693A3"/>
<path d="M151.661 95.1543C151.661 87.2155 158.688 83.9841 167.373 83.9841C176.058 83.9841 183.085 87.2155 183.085 95.1543C183.085 103.093 178.72 112.309 167.373 112.708C155.153 112.708 151.661 103.093 151.661 95.1543Z" fill="#FCCFA2"/>
<path d="M136.866 107.122H199.67C202.55 107.122 204.951 109.277 204.951 111.949V148.213C204.951 150.846 202.594 153.04 199.67 153.04H136.866C133.985 153.04 131.585 150.886 131.585 148.213V111.949C131.585 109.277 133.942 107.122 136.866 107.122Z" fill="white"/>
<path d="M150.375 115.406V117.252C151.671 117.378 152.779 117.628 153.699 118.004C154.631 118.38 155.442 118.95 156.132 119.713C156.677 120.294 157.095 120.892 157.385 121.508C157.688 122.123 157.839 122.687 157.839 123.199C157.839 123.769 157.615 124.265 157.168 124.686C156.732 125.096 156.199 125.302 155.569 125.302C154.383 125.302 153.614 124.698 153.263 123.49C152.863 122.066 151.901 121.12 150.375 120.653V127.762C151.876 128.15 153.069 128.503 153.953 128.822C154.849 129.141 155.648 129.602 156.35 130.206C157.101 130.833 157.676 131.585 158.076 132.462C158.487 133.328 158.693 134.279 158.693 135.316C158.693 136.615 158.366 137.834 157.712 138.973C157.071 140.101 156.12 141.024 154.861 141.742C153.602 142.46 152.107 142.887 150.375 143.024V147.279C150.375 147.951 150.303 148.441 150.157 148.749C150.024 149.056 149.721 149.21 149.249 149.21C148.813 149.21 148.505 149.085 148.323 148.834C148.153 148.584 148.069 148.196 148.069 147.672V143.058C146.652 142.91 145.411 142.596 144.346 142.118C143.292 141.639 142.408 141.047 141.694 140.341C140.992 139.623 140.471 138.882 140.132 138.119C139.793 137.344 139.624 136.587 139.624 135.846C139.624 135.299 139.848 134.809 140.296 134.376C140.756 133.932 141.325 133.71 142.003 133.71C142.548 133.71 143.008 133.829 143.383 134.069C143.758 134.308 144.019 134.644 144.164 135.077C144.491 136.011 144.775 136.729 145.018 137.23C145.26 137.72 145.623 138.17 146.107 138.58C146.604 138.99 147.257 139.304 148.069 139.52V131.573C146.446 131.152 145.09 130.685 144.001 130.172C142.911 129.648 142.027 128.907 141.349 127.95C140.671 126.993 140.332 125.763 140.332 124.259C140.332 122.299 140.992 120.693 142.312 119.44C143.643 118.186 145.562 117.457 148.069 117.252V115.441C148.069 114.484 148.45 114.005 149.213 114.005C149.988 114.005 150.375 114.472 150.375 115.406ZM148.069 127.13V120.585C147.052 120.87 146.259 121.246 145.69 121.713C145.12 122.18 144.836 122.886 144.836 123.832C144.836 124.732 145.102 125.415 145.635 125.883C146.168 126.338 146.979 126.754 148.069 127.13ZM150.375 132.206V139.691C151.598 139.463 152.542 139.002 153.208 138.307C153.874 137.612 154.207 136.803 154.207 135.88C154.207 134.889 153.88 134.126 153.226 133.59C152.585 133.043 151.634 132.582 150.375 132.206Z" fill="#14B666"/>
<path d="M170.428 121.085H190.504" stroke="#3C5858" stroke-width="5" stroke-miterlimit="10" stroke-linecap="round"/>
<path d="M170.428 130.26H190.504" stroke="#3C5858" stroke-width="5" stroke-miterlimit="10" stroke-linecap="round"/>
<path d="M208.398 124.676H210.144C213.025 124.676 215.381 126.83 215.381 129.463V137.442C215.381 140.074 213.025 142.229 210.144 142.229H208.398C205.518 142.229 203.161 140.074 203.161 137.442V129.463C203.161 126.83 205.518 124.676 208.398 124.676Z" fill="#FCCFA2"/>
<path d="M127.22 124.676H128.966C131.846 124.676 134.203 126.83 134.203 129.463V137.442C134.203 140.074 131.846 142.229 128.966 142.229H127.22C124.34 142.229 121.983 140.074 121.983 137.442V129.463C121.983 126.83 124.34 124.676 127.22 124.676Z" fill="#FCCFA2"/>
<path d="M124.165 66.8298C129.227 66.8298 133.331 62.9004 133.331 58.0532C133.331 53.206 129.227 49.2766 124.165 49.2766C119.103 49.2766 115 53.206 115 58.0532C115 62.9004 119.103 66.8298 124.165 66.8298Z" fill="#FFB983"/>
<path d="M208.835 66.8298C213.897 66.8298 218 62.9004 218 58.0532C218 53.206 213.897 49.2766 208.835 49.2766C203.773 49.2766 199.669 53.206 199.669 58.0532C199.669 62.9004 203.773 66.8298 208.835 66.8298Z" fill="#FFB983"/>
<path d="M150.657 4.5957H181.819C197.356 4.5957 210.101 16.2446 210.101 30.4468V70.8989C210.101 85.101 197.793 96.75 182.212 96.75H150.657C135.12 96.75 122.376 85.101 122.376 70.8989V30.4468C122.376 16.2446 135.076 4.5957 150.657 4.5957Z" fill="#FCD0A3"/>
<path d="M150.57 3H181.863C197.487 3 210.275 14.6489 210.275 28.8511L210.144 42.4947C209.271 43.6915 189.806 44.3697 181.775 41.6968C173.439 38.9043 166.849 29.3298 166.849 29.3298C166.849 29.3298 160.259 36.9096 153.232 40.1011C145.376 43.6516 122.987 45.6862 122.07 43.2925V28.8511C122.158 14.6489 134.945 3 150.57 3Z" fill="#D5694C"/>
<path d="M185.703 60.8458C187.873 60.8458 189.631 58.1666 189.631 54.8617C189.631 51.5568 187.873 48.8777 185.703 48.8777C183.534 48.8777 181.775 51.5568 181.775 54.8617C181.775 58.1666 183.534 60.8458 185.703 60.8458Z" fill="#394848"/>
<path opacity="0.3" d="M143.369 58.4521C143.805 52.0691 143.805 46.883 145.987 33.3191C147.471 24.0239 150.788 15.766 156.462 8.58511C157.99 6.63032 159.081 4.19681 161.263 3L151.356 3.39894C151.268 3.39894 151.181 3.39894 151.094 3.39894C133.767 3 121.11 15.766 122.42 30.4468V70.8989C122.42 85.0612 133.767 94.3564 145.551 96.3511C145.638 96.3511 148.519 96.75 148.606 96.75H151.661C135.949 91.1649 142.932 64.8351 143.369 58.4521Z" fill="#B4754D"/>
<path d="M194.432 69.2233C198.771 69.2233 202.288 67.8837 202.288 66.2313C202.288 64.5788 198.771 63.2393 194.432 63.2393C190.093 63.2393 186.576 64.5788 186.576 66.2313C186.576 67.8837 190.093 69.2233 194.432 69.2233Z" fill="#EC6161"/>
<path d="M137.695 69.2233C142.034 69.2233 145.551 67.8837 145.551 66.2313C145.551 64.5788 142.034 63.2393 137.695 63.2393C133.356 63.2393 129.839 64.5788 129.839 66.2313C129.839 67.8837 133.356 69.2233 137.695 69.2233Z" fill="#EC6161"/>
<path d="M175.229 71.218C173.745 74.7287 170.253 77.2021 166.195 77.2021C162.223 77.2021 158.775 74.8483 157.248 71.4175" stroke="#E7AC8A" stroke-width="9.7849" stroke-miterlimit="10" stroke-linecap="round" stroke-linejoin="round"/>
<path opacity="0.3" d="M151.661 96.7502C174.051 99.9815 183.085 96.7502 183.085 96.7502C183.085 96.7502 182.343 101.697 182.037 101.857C176.276 104.25 160.521 103.213 159.517 102.335C159.517 102.335 159.954 106.724 161.699 107.122C161.699 107.122 155.284 107.242 155.153 107.122C152.316 104.41 151.356 96.7103 151.661 96.7502Z" fill="#B4754D"/>
<path d="M145.551 60.8458C147.72 60.8458 149.479 58.1666 149.479 54.8617C149.479 51.5568 147.72 48.8777 145.551 48.8777C143.382 48.8777 141.623 51.5568 141.623 54.8617C141.623 58.1666 143.382 60.8458 145.551 60.8458Z" fill="#394848"/>
<path d="M432 80.9743C432 41.652 464.664 9.01196 504.016 9.01196C543.368 9.01196 575.297 40.9177 575.297 80.24C575.297 119.562 543.368 151.468 504.016 151.468C464.664 151.468 432 120.333 432 80.9743Z" fill="#30B9C7"/>
<path d="M473.152 29.9397C475.357 24.7996 483.44 18.5579 488.033 18.7415C490.605 18.8517 492.81 19.4758 494.279 23.5145C495.749 27.5532 495.382 32.3262 494.647 35.6306C494.022 38.3476 492.81 42.9737 486.563 41.5051C480.317 40.0365 476.643 38.935 474.438 37.4664C472.27 36.0345 470.948 35.0799 473.152 29.9397Z" fill="#B6C1CC"/>
<path d="M448.534 35.8142C448.534 35.8142 478.663 43.1573 481.603 61.8822C484.542 80.6071 470.58 94.9261 470.58 94.9261C470.58 94.9261 461.027 109.612 468.008 118.057C474.989 126.501 476.826 136.415 466.906 141.188C466.906 141.188 456.25 135.68 448.534 124.666C448.534 124.666 453.311 116.221 435.307 95.2933L432.735 89.4188C432.735 89.4188 427.223 60.0464 448.534 35.8142Z" fill="#4ACB8B"/>
<path opacity="0.2" d="M472.785 79.1385C472.785 44.6626 495.565 19.6594 522.755 11.582C518.419 10.7743 511.732 9.15878 504.751 9.01192C466.171 8.27761 432 41.5785 432 80.6071C432 119.636 463.93 151.468 503.281 151.468C507.874 151.468 517.244 150.734 522.02 148.898C495.933 140.086 472.785 113.651 472.785 79.1385Z" fill="black"/>
<path d="M555.089 30.3069C555.089 30.3069 573.46 47.196 575.297 74.7326C577.134 102.269 562.805 126.501 552.517 130.907C552.517 130.907 541.678 114.863 544.066 98.9648C545.168 91.6217 548.108 89.0516 557.661 84.6458C566.038 80.7906 560.968 72.8968 557.661 72.5297C554.354 72.1625 540.759 69.5924 538.922 62.9836C537.599 58.2473 538.554 40.9544 543.331 34.3456C548.108 27.7368 555.089 30.3069 555.089 30.3069Z" fill="#4ACB8B"/>
<path d="M548.842 22.2294C548.842 22.2294 551.414 13.7848 558.763 12.3162C566.111 10.8476 570.447 16.7955 571.255 19.6593C571.99 22.2294 573.092 28.471 562.804 39.1185C562.804 39.1185 553.986 48.2974 549.577 50.1332C549.577 50.1332 542.228 45.7273 536.717 40.5871C536.717 40.5871 524.959 29.9396 526.796 20.7608C527.458 17.4931 531.94 9.74614 541.861 13.0505C541.861 13.0505 546.638 14.5192 548.842 22.2294Z" fill="#EC6161"/>
<path d="M468.743 98.4876C468.743 98.4876 471.352 89.9329 478.774 88.4642C486.196 86.9956 490.605 93.017 491.413 95.9175C492.148 98.5243 493.287 104.839 482.852 115.634C482.852 115.634 473.924 124.923 469.441 126.795C469.441 126.795 461.982 122.316 456.434 117.139C456.434 117.139 444.529 106.345 446.403 97.0557C447.065 93.7513 451.621 85.8942 461.652 89.2353C461.652 89.1986 466.502 90.7039 468.743 98.4876Z" fill="#EC6161"/>
<path d="M545.682 121.288C545.682 121.288 547.63 114.936 553.141 113.835C558.689 112.733 561.923 117.212 562.547 119.379C563.098 121.325 563.944 126.024 556.191 134.028C556.191 134.028 549.54 140.931 546.233 142.326C546.233 142.326 540.685 139.021 536.57 135.13C536.57 135.13 527.715 127.126 529.111 120.223C529.589 117.763 532.969 111.925 540.465 114.422C540.428 114.385 544.029 115.487 545.682 121.288Z" fill="#EC6161"/>
<path d="M86.8511 188.298C86.8511 186.239 87.3109 184.6 88.2305 183.379C89.1582 182.158 90.4237 181.548 92.0269 181.548C93.3127 181.548 94.3747 182.028 95.2129 182.988V176.25H98.7529V195H95.5669L95.396 193.596C94.5171 194.695 93.3859 195.244 92.0024 195.244C90.4481 195.244 89.1989 194.634 88.2549 193.413C87.319 192.184 86.8511 190.479 86.8511 188.298ZM90.3789 188.555C90.3789 189.792 90.5946 190.74 91.0259 191.399C91.4572 192.058 92.0838 192.388 92.9058 192.388C93.9963 192.388 94.7653 191.928 95.2129 191.008V185.796C94.7734 184.876 94.0125 184.417 92.9302 184.417C91.2293 184.417 90.3789 185.796 90.3789 188.555ZM100.938 188.274C100.938 186.964 101.19 185.796 101.695 184.771C102.199 183.745 102.924 182.952 103.868 182.39C104.82 181.829 105.923 181.548 107.176 181.548C108.958 181.548 110.411 182.093 111.534 183.184C112.665 184.274 113.296 185.755 113.426 187.627L113.45 188.53C113.45 190.557 112.885 192.184 111.753 193.413C110.622 194.634 109.104 195.244 107.2 195.244C105.296 195.244 103.774 194.634 102.635 193.413C101.504 192.192 100.938 190.532 100.938 188.433V188.274ZM104.466 188.53C104.466 189.784 104.702 190.744 105.174 191.411C105.646 192.07 106.321 192.4 107.2 192.4C108.055 192.4 108.722 192.074 109.202 191.423C109.682 190.764 109.922 189.714 109.922 188.274C109.922 187.045 109.682 186.093 109.202 185.417C108.722 184.742 108.047 184.404 107.176 184.404C106.313 184.404 105.646 184.742 105.174 185.417C104.702 186.085 104.466 187.122 104.466 188.53ZM118.87 181.792L118.98 183.318C119.924 182.138 121.189 181.548 122.776 181.548C124.176 181.548 125.218 181.959 125.901 182.781C126.585 183.603 126.935 184.832 126.951 186.467V195H123.423V186.553C123.423 185.804 123.261 185.263 122.935 184.929C122.61 184.587 122.068 184.417 121.312 184.417C120.319 184.417 119.574 184.84 119.078 185.686V195H115.55V181.792H118.87ZM137.291 195C137.128 194.683 137.01 194.288 136.937 193.816C136.082 194.768 134.971 195.244 133.604 195.244C132.31 195.244 131.236 194.87 130.381 194.121C129.535 193.372 129.112 192.428 129.112 191.289C129.112 189.889 129.629 188.815 130.662 188.066C131.704 187.318 133.205 186.939 135.167 186.931H136.79V186.174C136.79 185.564 136.631 185.076 136.314 184.709C136.005 184.343 135.512 184.16 134.837 184.16C134.243 184.16 133.775 184.303 133.433 184.587C133.099 184.872 132.933 185.263 132.933 185.759H129.405C129.405 184.994 129.641 184.286 130.113 183.635C130.585 182.984 131.252 182.476 132.115 182.109C132.977 181.735 133.946 181.548 135.02 181.548C136.648 181.548 137.938 181.959 138.89 182.781C139.85 183.595 140.33 184.742 140.33 186.223V191.948C140.338 193.201 140.513 194.15 140.855 194.792V195H137.291ZM134.373 192.546C134.894 192.546 135.374 192.432 135.813 192.205C136.253 191.969 136.578 191.655 136.79 191.265V188.994H135.472C133.706 188.994 132.766 189.604 132.652 190.825L132.64 191.033C132.64 191.472 132.794 191.834 133.104 192.119C133.413 192.404 133.836 192.546 134.373 192.546ZM147.264 178.545V181.792H149.522V184.38H147.264V190.972C147.264 191.46 147.357 191.81 147.544 192.021C147.732 192.233 148.09 192.339 148.619 192.339C149.009 192.339 149.355 192.31 149.656 192.253V194.927C148.965 195.138 148.252 195.244 147.52 195.244C145.046 195.244 143.785 193.995 143.736 191.497V184.38H141.807V181.792H143.736V178.545H147.264ZM157.566 195.244C155.63 195.244 154.051 194.65 152.83 193.462C151.618 192.274 151.011 190.691 151.011 188.713V188.372C151.011 187.045 151.268 185.861 151.78 184.819C152.293 183.77 153.017 182.964 153.953 182.402C154.897 181.833 155.971 181.548 157.176 181.548C158.982 181.548 160.403 182.118 161.436 183.257C162.478 184.396 162.999 186.012 162.999 188.103V189.543H154.588C154.702 190.406 155.044 191.098 155.613 191.619C156.191 192.139 156.919 192.4 157.798 192.4C159.157 192.4 160.219 191.908 160.984 190.923L162.718 192.864C162.189 193.612 161.473 194.198 160.569 194.622C159.666 195.037 158.665 195.244 157.566 195.244ZM157.164 184.404C156.464 184.404 155.894 184.64 155.455 185.112C155.023 185.584 154.747 186.26 154.625 187.139H159.532V186.858C159.515 186.077 159.304 185.474 158.897 185.051C158.49 184.62 157.912 184.404 157.164 184.404ZM175.462 178.545V181.792H177.72V184.38H175.462V190.972C175.462 191.46 175.556 191.81 175.743 192.021C175.93 192.233 176.288 192.339 176.817 192.339C177.208 192.339 177.553 192.31 177.854 192.253V194.927C177.163 195.138 176.451 195.244 175.718 195.244C173.244 195.244 171.983 193.995 171.934 191.497V184.38H170.005V181.792H171.934V178.545H175.462ZM178.77 188.274C178.77 186.964 179.022 185.796 179.527 184.771C180.031 183.745 180.756 182.952 181.7 182.39C182.652 181.829 183.755 181.548 185.008 181.548C186.79 181.548 188.243 182.093 189.366 183.184C190.497 184.274 191.128 185.755 191.258 187.627L191.282 188.53C191.282 190.557 190.717 192.184 189.585 193.413C188.454 194.634 186.937 195.244 185.032 195.244C183.128 195.244 181.606 194.634 180.467 193.413C179.336 192.192 178.77 190.532 178.77 188.433V188.274ZM182.298 188.53C182.298 189.784 182.534 190.744 183.006 191.411C183.478 192.07 184.153 192.4 185.032 192.4C185.887 192.4 186.554 192.074 187.034 191.423C187.514 190.764 187.754 189.714 187.754 188.274C187.754 187.045 187.514 186.093 187.034 185.417C186.554 184.742 185.879 184.404 185.008 184.404C184.145 184.404 183.478 184.742 183.006 185.417C182.534 186.085 182.298 187.122 182.298 188.53ZM207.334 195C207.172 194.683 207.054 194.288 206.98 193.816C206.126 194.768 205.015 195.244 203.648 195.244C202.354 195.244 201.28 194.87 200.425 194.121C199.579 193.372 199.156 192.428 199.156 191.289C199.156 189.889 199.673 188.815 200.706 188.066C201.748 187.318 203.249 186.939 205.21 186.931H206.834V186.174C206.834 185.564 206.675 185.076 206.358 184.709C206.049 184.343 205.556 184.16 204.881 184.16C204.287 184.16 203.819 184.303 203.477 184.587C203.143 184.872 202.977 185.263 202.977 185.759H199.449C199.449 184.994 199.685 184.286 200.157 183.635C200.629 182.984 201.296 182.476 202.159 182.109C203.021 181.735 203.99 181.548 205.064 181.548C206.692 181.548 207.981 181.959 208.934 182.781C209.894 183.595 210.374 184.742 210.374 186.223V191.948C210.382 193.201 210.557 194.15 210.899 194.792V195H207.334ZM204.417 192.546C204.938 192.546 205.418 192.432 205.857 192.205C206.297 191.969 206.622 191.655 206.834 191.265V188.994H205.516C203.75 188.994 202.81 189.604 202.696 190.825L202.684 191.033C202.684 191.472 202.838 191.834 203.147 192.119C203.457 192.404 203.88 192.546 204.417 192.546ZM66.1724 217.4C66.8234 217.4 67.3524 217.221 67.7593 216.863C68.1662 216.505 68.3778 216.029 68.394 215.435H71.7021C71.694 216.33 71.4499 217.152 70.9697 217.9C70.4896 218.641 69.8304 219.219 68.9922 219.634C68.1621 220.041 67.2425 220.244 66.2334 220.244C64.3454 220.244 62.8561 219.646 61.7656 218.45C60.6751 217.245 60.1299 215.585 60.1299 213.469V213.237C60.1299 211.203 60.6711 209.579 61.7534 208.367C62.8358 207.154 64.321 206.548 66.209 206.548C67.861 206.548 69.1834 207.02 70.1763 207.964C71.1772 208.9 71.6859 210.149 71.7021 211.711H68.394C68.3778 211.028 68.1662 210.474 67.7593 210.051C67.3524 209.62 66.8153 209.404 66.1479 209.404C65.326 209.404 64.7035 209.705 64.2803 210.308C63.8652 210.902 63.6577 211.87 63.6577 213.213V213.579C63.6577 214.938 63.8652 215.915 64.2803 216.509C64.6953 217.103 65.326 217.4 66.1724 217.4ZM77.1587 208.232C78.0946 207.109 79.2705 206.548 80.6865 206.548C83.5511 206.548 85.0037 208.212 85.0444 211.541V220H81.5166V211.638C81.5166 210.881 81.3538 210.324 81.0283 209.966C80.7028 209.6 80.1616 209.417 79.4048 209.417C78.3713 209.417 77.6226 209.815 77.1587 210.613V220H73.6309V201.25H77.1587V208.232ZM95.3594 220C95.1966 219.683 95.0786 219.288 95.0054 218.816C94.1509 219.768 93.04 220.244 91.6729 220.244C90.3789 220.244 89.3047 219.87 88.4502 219.121C87.6038 218.372 87.1807 217.428 87.1807 216.289C87.1807 214.889 87.6974 213.815 88.731 213.066C89.7726 212.318 91.2741 211.939 93.2354 211.931H94.8589V211.174C94.8589 210.564 94.7002 210.076 94.3828 209.709C94.0736 209.343 93.5812 209.16 92.9058 209.16C92.3117 209.16 91.8438 209.303 91.502 209.587C91.1683 209.872 91.0015 210.263 91.0015 210.759H87.4736C87.4736 209.994 87.7096 209.286 88.1816 208.635C88.6536 207.984 89.321 207.476 90.1836 207.109C91.0462 206.735 92.0146 206.548 93.0889 206.548C94.7165 206.548 96.0063 206.959 96.9585 207.781C97.9188 208.595 98.3989 209.742 98.3989 211.223V216.948C98.4071 218.201 98.582 219.15 98.9238 219.792V220H95.3594ZM92.4419 217.546C92.9627 217.546 93.4429 217.432 93.8823 217.205C94.3218 216.969 94.6473 216.655 94.8589 216.265V213.994H93.5405C91.7746 213.994 90.8346 214.604 90.7207 215.825L90.7085 216.033C90.7085 216.472 90.8631 216.834 91.1724 217.119C91.4816 217.404 91.9048 217.546 92.4419 217.546ZM108.531 210.1C108.051 210.035 107.627 210.002 107.261 210.002C105.927 210.002 105.052 210.454 104.637 211.357V220H101.109V206.792H104.441L104.539 208.367C105.247 207.154 106.228 206.548 107.481 206.548C107.872 206.548 108.238 206.601 108.58 206.707L108.531 210.1ZM113.963 220H110.423V206.792H113.963V220ZM110.215 203.374C110.215 202.845 110.39 202.41 110.74 202.068C111.098 201.726 111.583 201.555 112.193 201.555C112.795 201.555 113.275 201.726 113.633 202.068C113.991 202.41 114.17 202.845 114.17 203.374C114.17 203.911 113.987 204.351 113.621 204.692C113.263 205.034 112.787 205.205 112.193 205.205C111.599 205.205 111.119 205.034 110.752 204.692C110.394 204.351 110.215 203.911 110.215 203.374ZM121.104 203.545V206.792H123.362V209.38H121.104V215.972C121.104 216.46 121.198 216.81 121.385 217.021C121.572 217.233 121.93 217.339 122.459 217.339C122.85 217.339 123.195 217.31 123.497 217.253V219.927C122.805 220.138 122.093 220.244 121.36 220.244C118.886 220.244 117.625 218.995 117.576 216.497V209.38H115.647V206.792H117.576V203.545H121.104ZM132.981 220C132.819 219.683 132.701 219.288 132.627 218.816C131.773 219.768 130.662 220.244 129.295 220.244C128.001 220.244 126.927 219.87 126.072 219.121C125.226 218.372 124.803 217.428 124.803 216.289C124.803 214.889 125.319 213.815 126.353 213.066C127.395 212.318 128.896 211.939 130.857 211.931H132.481V211.174C132.481 210.564 132.322 210.076 132.005 209.709C131.696 209.343 131.203 209.16 130.528 209.16C129.934 209.16 129.466 209.303 129.124 209.587C128.79 209.872 128.624 210.263 128.624 210.759H125.096C125.096 209.994 125.332 209.286 125.804 208.635C126.276 207.984 126.943 207.476 127.806 207.109C128.668 206.735 129.637 206.548 130.711 206.548C132.339 206.548 133.628 206.959 134.581 207.781C135.541 208.595 136.021 209.742 136.021 211.223V216.948C136.029 218.201 136.204 219.15 136.546 219.792V220H132.981ZM130.064 217.546C130.585 217.546 131.065 217.432 131.504 217.205C131.944 216.969 132.269 216.655 132.481 216.265V213.994H131.163C129.397 213.994 128.457 214.604 128.343 215.825L128.331 216.033C128.331 216.472 128.485 216.834 128.794 217.119C129.104 217.404 129.527 217.546 130.064 217.546ZM150.633 213.518C150.633 215.634 150.181 217.286 149.278 218.474C148.375 219.654 147.113 220.244 145.494 220.244C144.061 220.244 142.918 219.695 142.063 218.596L141.905 220H138.731V201.25H142.259V207.976C143.073 207.024 144.143 206.548 145.469 206.548C147.081 206.548 148.342 207.142 149.253 208.33C150.173 209.51 150.633 211.174 150.633 213.323V213.518ZM147.105 213.262C147.105 211.927 146.893 210.955 146.47 210.344C146.047 209.726 145.416 209.417 144.578 209.417C143.455 209.417 142.682 209.876 142.259 210.796V216.008C142.69 216.936 143.471 217.4 144.603 217.4C145.742 217.4 146.491 216.838 146.849 215.715C147.02 215.178 147.105 214.36 147.105 213.262ZM156.541 220H153.001V201.25H156.541V220ZM165.538 220.244C163.601 220.244 162.022 219.65 160.801 218.462C159.589 217.274 158.982 215.691 158.982 213.713V213.372C158.982 212.045 159.239 210.861 159.751 209.819C160.264 208.77 160.988 207.964 161.924 207.402C162.868 206.833 163.943 206.548 165.147 206.548C166.954 206.548 168.374 207.118 169.407 208.257C170.449 209.396 170.97 211.012 170.97 213.103V214.543H162.559C162.673 215.406 163.015 216.098 163.584 216.619C164.162 217.139 164.891 217.4 165.77 217.4C167.129 217.4 168.191 216.908 168.956 215.923L170.689 217.864C170.16 218.612 169.444 219.198 168.541 219.622C167.637 220.037 166.636 220.244 165.538 220.244ZM165.135 209.404C164.435 209.404 163.865 209.64 163.426 210.112C162.994 210.584 162.718 211.26 162.596 212.139H167.503V211.858C167.487 211.077 167.275 210.474 166.868 210.051C166.461 209.62 165.883 209.404 165.135 209.404ZM184.703 217.4C185.354 217.4 185.883 217.221 186.29 216.863C186.696 216.505 186.908 216.029 186.924 215.435H190.232C190.224 216.33 189.98 217.152 189.5 217.9C189.02 218.641 188.361 219.219 187.522 219.634C186.692 220.041 185.773 220.244 184.764 220.244C182.876 220.244 181.386 219.646 180.296 218.45C179.205 217.245 178.66 215.585 178.66 213.469V213.237C178.66 211.203 179.201 209.579 180.284 208.367C181.366 207.154 182.851 206.548 184.739 206.548C186.391 206.548 187.714 207.02 188.707 207.964C189.708 208.9 190.216 210.149 190.232 211.711H186.924C186.908 211.028 186.696 210.474 186.29 210.051C185.883 209.62 185.346 209.404 184.678 209.404C183.856 209.404 183.234 209.705 182.811 210.308C182.396 210.902 182.188 211.87 182.188 213.213V213.579C182.188 214.938 182.396 215.915 182.811 216.509C183.226 217.103 183.856 217.4 184.703 217.4ZM199.9 220C199.738 219.683 199.62 219.288 199.546 218.816C198.692 219.768 197.581 220.244 196.214 220.244C194.92 220.244 193.846 219.87 192.991 219.121C192.145 218.372 191.722 217.428 191.722 216.289C191.722 214.889 192.238 213.815 193.272 213.066C194.314 212.318 195.815 211.939 197.776 211.931H199.4V211.174C199.4 210.564 199.241 210.076 198.924 209.709C198.615 209.343 198.122 209.16 197.447 209.16C196.853 209.16 196.385 209.303 196.043 209.587C195.709 209.872 195.542 210.263 195.542 210.759H192.015C192.015 209.994 192.251 209.286 192.723 208.635C193.195 207.984 193.862 207.476 194.725 207.109C195.587 206.735 196.556 206.548 197.63 206.548C199.257 206.548 200.547 206.959 201.5 207.781C202.46 208.595 202.94 209.742 202.94 211.223V216.948C202.948 218.201 203.123 219.15 203.465 219.792V220H199.9ZM196.983 217.546C197.504 217.546 197.984 217.432 198.423 217.205C198.863 216.969 199.188 216.655 199.4 216.265V213.994H198.082C196.316 213.994 195.376 214.604 195.262 215.825L195.25 216.033C195.25 216.472 195.404 216.834 195.713 217.119C196.023 217.404 196.446 217.546 196.983 217.546ZM213.56 218.657C212.689 219.715 211.485 220.244 209.947 220.244C208.531 220.244 207.448 219.837 206.7 219.023C205.959 218.21 205.581 217.017 205.564 215.447V206.792H209.092V215.325C209.092 216.7 209.719 217.388 210.972 217.388C212.168 217.388 212.99 216.973 213.438 216.143V206.792H216.978V220H213.658L213.56 218.657ZM226.792 216.35C226.792 215.919 226.577 215.581 226.146 215.337C225.722 215.085 225.039 214.861 224.095 214.666C220.953 214.006 219.383 212.672 219.383 210.662C219.383 209.49 219.867 208.513 220.835 207.732C221.812 206.943 223.086 206.548 224.656 206.548C226.333 206.548 227.671 206.943 228.672 207.732C229.681 208.521 230.186 209.547 230.186 210.808H226.658C226.658 210.304 226.495 209.889 226.17 209.563C225.844 209.229 225.336 209.062 224.644 209.062C224.05 209.062 223.59 209.197 223.265 209.465C222.939 209.734 222.776 210.076 222.776 210.491C222.776 210.881 222.959 211.199 223.326 211.443C223.7 211.679 224.327 211.886 225.206 212.065C226.084 212.236 226.825 212.432 227.427 212.651C229.291 213.335 230.223 214.519 230.223 216.204C230.223 217.408 229.706 218.385 228.672 219.133C227.639 219.874 226.304 220.244 224.668 220.244C223.562 220.244 222.577 220.049 221.714 219.658C220.86 219.259 220.188 218.718 219.7 218.035C219.212 217.343 218.968 216.598 218.968 215.801H222.312C222.345 216.427 222.577 216.908 223.008 217.241C223.44 217.575 224.017 217.742 224.742 217.742C225.417 217.742 225.926 217.616 226.268 217.363C226.618 217.103 226.792 216.765 226.792 216.35ZM238.584 220.244C236.648 220.244 235.069 219.65 233.848 218.462C232.636 217.274 232.029 215.691 232.029 213.713V213.372C232.029 212.045 232.286 210.861 232.798 209.819C233.311 208.77 234.035 207.964 234.971 207.402C235.915 206.833 236.989 206.548 238.194 206.548C240 206.548 241.421 207.118 242.454 208.257C243.496 209.396 244.017 211.012 244.017 213.103V214.543H235.606C235.72 215.406 236.062 216.098 236.631 216.619C237.209 217.139 237.938 217.4 238.816 217.4C240.175 217.4 241.237 216.908 242.002 215.923L243.736 217.864C243.207 218.612 242.491 219.198 241.587 219.622C240.684 220.037 239.683 220.244 238.584 220.244ZM238.182 209.404C237.482 209.404 236.912 209.64 236.473 210.112C236.041 210.584 235.765 211.26 235.643 212.139H240.55V211.858C240.534 211.077 240.322 210.474 239.915 210.051C239.508 209.62 238.93 209.404 238.182 209.404Z" fill="black" fill-opacity="0.55"/>
<path d="M738.845 189.702L737.576 190.972V195H734.048V176.25H737.576V186.638L738.259 185.759L741.641 181.792H745.876L741.104 187.297L746.292 195H742.239L738.845 189.702ZM753.237 195.244C751.3 195.244 749.722 194.65 748.501 193.462C747.288 192.274 746.682 190.691 746.682 188.713V188.372C746.682 187.045 746.938 185.861 747.451 184.819C747.964 183.77 748.688 182.964 749.624 182.402C750.568 181.833 751.642 181.548 752.847 181.548C754.653 181.548 756.073 182.118 757.107 183.257C758.149 184.396 758.669 186.012 758.669 188.103V189.543H750.259C750.373 190.406 750.715 191.098 751.284 191.619C751.862 192.139 752.59 192.4 753.469 192.4C754.828 192.4 755.89 191.908 756.655 190.923L758.389 192.864C757.86 193.612 757.144 194.198 756.24 194.622C755.337 195.037 754.336 195.244 753.237 195.244ZM752.834 184.404C752.135 184.404 751.565 184.64 751.125 185.112C750.694 185.584 750.417 186.26 750.295 187.139H755.203V186.858C755.186 186.077 754.975 185.474 754.568 185.051C754.161 184.62 753.583 184.404 752.834 184.404ZM766.763 195.244C764.826 195.244 763.247 194.65 762.026 193.462C760.814 192.274 760.208 190.691 760.208 188.713V188.372C760.208 187.045 760.464 185.861 760.977 184.819C761.489 183.77 762.214 182.964 763.149 182.402C764.093 181.833 765.168 181.548 766.372 181.548C768.179 181.548 769.599 182.118 770.632 183.257C771.674 184.396 772.195 186.012 772.195 188.103V189.543H763.784C763.898 190.406 764.24 191.098 764.81 191.619C765.387 192.139 766.116 192.4 766.995 192.4C768.354 192.4 769.416 191.908 770.181 190.923L771.914 192.864C771.385 193.612 770.669 194.198 769.766 194.622C768.862 195.037 767.861 195.244 766.763 195.244ZM766.36 184.404C765.66 184.404 765.09 184.64 764.651 185.112C764.22 185.584 763.943 186.26 763.821 187.139H768.728V186.858C768.712 186.077 768.5 185.474 768.093 185.051C767.686 184.62 767.109 184.404 766.36 184.404ZM786.099 188.518C786.099 190.553 785.635 192.184 784.707 193.413C783.787 194.634 782.542 195.244 780.972 195.244C779.637 195.244 778.559 194.78 777.737 193.853V200.078H774.209V181.792H777.48L777.603 183.086C778.457 182.061 779.572 181.548 780.947 181.548C782.575 181.548 783.84 182.15 784.744 183.354C785.647 184.559 786.099 186.219 786.099 188.335V188.518ZM782.571 188.262C782.571 187.033 782.351 186.085 781.912 185.417C781.48 184.75 780.85 184.417 780.02 184.417C778.913 184.417 778.152 184.84 777.737 185.686V191.094C778.168 191.965 778.937 192.4 780.044 192.4C781.729 192.4 782.571 191.021 782.571 188.262ZM802.175 195C802.013 194.683 801.895 194.288 801.821 193.816C800.967 194.768 799.856 195.244 798.489 195.244C797.195 195.244 796.121 194.87 795.266 194.121C794.42 193.372 793.997 192.428 793.997 191.289C793.997 189.889 794.513 188.815 795.547 188.066C796.589 187.318 798.09 186.939 800.051 186.931H801.675V186.174C801.675 185.564 801.516 185.076 801.199 184.709C800.889 184.343 800.397 184.16 799.722 184.16C799.128 184.16 798.66 184.303 798.318 184.587C797.984 184.872 797.817 185.263 797.817 185.759H794.29C794.29 184.994 794.526 184.286 794.998 183.635C795.47 182.984 796.137 182.476 797 182.109C797.862 181.735 798.831 181.548 799.905 181.548C801.532 181.548 802.822 181.959 803.774 182.781C804.735 183.595 805.215 184.742 805.215 186.223V191.948C805.223 193.201 805.398 194.15 805.74 194.792V195H802.175ZM799.258 192.546C799.779 192.546 800.259 192.432 800.698 192.205C801.138 191.969 801.463 191.655 801.675 191.265V188.994H800.356C798.59 188.994 797.651 189.604 797.537 190.825L797.524 191.033C797.524 191.472 797.679 191.834 797.988 192.119C798.298 192.404 798.721 192.546 799.258 192.546ZM811.172 181.792L811.282 183.318C812.226 182.138 813.491 181.548 815.078 181.548C816.478 181.548 817.52 181.959 818.203 182.781C818.887 183.603 819.237 184.832 819.253 186.467V195H815.725V186.553C815.725 185.804 815.562 185.263 815.237 184.929C814.911 184.587 814.37 184.417 813.613 184.417C812.62 184.417 811.876 184.84 811.379 185.686V195H807.852V181.792H811.172ZM834.243 195.244C832.306 195.244 830.728 194.65 829.507 193.462C828.294 192.274 827.688 190.691 827.688 188.713V188.372C827.688 187.045 827.944 185.861 828.457 184.819C828.97 183.77 829.694 182.964 830.63 182.402C831.574 181.833 832.648 181.548 833.853 181.548C835.659 181.548 837.079 182.118 838.113 183.257C839.154 184.396 839.675 186.012 839.675 188.103V189.543H831.265C831.379 190.406 831.72 191.098 832.29 191.619C832.868 192.139 833.596 192.4 834.475 192.4C835.834 192.4 836.896 191.908 837.661 190.923L839.395 192.864C838.866 193.612 838.149 194.198 837.246 194.622C836.343 195.037 835.342 195.244 834.243 195.244ZM833.84 184.404C833.14 184.404 832.571 184.64 832.131 185.112C831.7 185.584 831.423 186.26 831.301 187.139H836.208V186.858C836.192 186.077 835.981 185.474 835.574 185.051C835.167 184.62 834.589 184.404 833.84 184.404ZM846.45 190.007L848.892 181.792H852.676L847.366 197.051L847.073 197.747C846.283 199.472 844.981 200.334 843.167 200.334C842.654 200.334 842.133 200.257 841.604 200.103V197.429L842.141 197.441C842.808 197.441 843.305 197.34 843.63 197.136C843.964 196.933 844.224 196.595 844.412 196.123L844.827 195.037L840.2 181.792H843.997L846.45 190.007ZM859.976 195.244C858.039 195.244 856.46 194.65 855.239 193.462C854.027 192.274 853.42 190.691 853.42 188.713V188.372C853.42 187.045 853.677 185.861 854.189 184.819C854.702 183.77 855.426 182.964 856.362 182.402C857.306 181.833 858.381 181.548 859.585 181.548C861.392 181.548 862.812 182.118 863.845 183.257C864.887 184.396 865.408 186.012 865.408 188.103V189.543H856.997C857.111 190.406 857.453 191.098 858.022 191.619C858.6 192.139 859.329 192.4 860.208 192.4C861.567 192.4 862.629 191.908 863.394 190.923L865.127 192.864C864.598 193.612 863.882 194.198 862.979 194.622C862.075 195.037 861.074 195.244 859.976 195.244ZM859.573 184.404C858.873 184.404 858.303 184.64 857.864 185.112C857.432 185.584 857.156 186.26 857.034 187.139H861.941V186.858C861.925 186.077 861.713 185.474 861.306 185.051C860.899 184.62 860.321 184.404 859.573 184.404ZM873.098 188.274C873.098 186.964 873.35 185.796 873.855 184.771C874.36 183.745 875.084 182.952 876.028 182.39C876.98 181.829 878.083 181.548 879.336 181.548C881.118 181.548 882.571 182.093 883.694 183.184C884.825 184.274 885.456 185.755 885.586 187.627L885.61 188.53C885.61 190.557 885.045 192.184 883.914 193.413C882.782 194.634 881.265 195.244 879.36 195.244C877.456 195.244 875.934 194.634 874.795 193.413C873.664 192.192 873.098 190.532 873.098 188.433V188.274ZM876.626 188.53C876.626 189.784 876.862 190.744 877.334 191.411C877.806 192.07 878.481 192.4 879.36 192.4C880.215 192.4 880.882 192.074 881.362 191.423C881.842 190.764 882.083 189.714 882.083 188.274C882.083 187.045 881.842 186.093 881.362 185.417C880.882 184.742 880.207 184.404 879.336 184.404C878.473 184.404 877.806 184.742 877.334 185.417C876.862 186.085 876.626 187.122 876.626 188.53ZM895.693 193.657C894.823 194.715 893.618 195.244 892.08 195.244C890.664 195.244 889.582 194.837 888.833 194.023C888.092 193.21 887.714 192.017 887.698 190.447V181.792H891.226V190.325C891.226 191.7 891.852 192.388 893.105 192.388C894.302 192.388 895.124 191.973 895.571 191.143V181.792H899.111V195H895.791L895.693 193.657ZM905.996 178.545V181.792H908.254V184.38H905.996V190.972C905.996 191.46 906.09 191.81 906.277 192.021C906.464 192.233 906.822 192.339 907.351 192.339C907.742 192.339 908.088 192.31 908.389 192.253V194.927C907.697 195.138 906.985 195.244 906.252 195.244C903.778 195.244 902.517 193.995 902.468 191.497V184.38H900.54V181.792H902.468V178.545H905.996ZM920.669 178.545V181.792H922.927V184.38H920.669V190.972C920.669 191.46 920.763 191.81 920.95 192.021C921.137 192.233 921.495 192.339 922.024 192.339C922.415 192.339 922.76 192.31 923.062 192.253V194.927C922.37 195.138 921.658 195.244 920.925 195.244C918.451 195.244 917.19 193.995 917.141 191.497V184.38H915.212V181.792H917.141V178.545H920.669ZM923.977 188.274C923.977 186.964 924.229 185.796 924.734 184.771C925.238 183.745 925.963 182.952 926.907 182.39C927.859 181.829 928.962 181.548 930.215 181.548C931.997 181.548 933.45 182.093 934.573 183.184C935.704 184.274 936.335 185.755 936.465 187.627L936.489 188.53C936.489 190.557 935.924 192.184 934.792 193.413C933.661 194.634 932.144 195.244 930.239 195.244C928.335 195.244 926.813 194.634 925.674 193.413C924.543 192.192 923.977 190.532 923.977 188.433V188.274ZM927.505 188.53C927.505 189.784 927.741 190.744 928.213 191.411C928.685 192.07 929.36 192.4 930.239 192.4C931.094 192.4 931.761 192.074 932.241 191.423C932.721 190.764 932.961 189.714 932.961 188.274C932.961 187.045 932.721 186.093 932.241 185.417C931.761 184.742 931.086 184.404 930.215 184.404C929.352 184.404 928.685 184.742 928.213 185.417C927.741 186.085 927.505 187.122 927.505 188.53ZM762.905 216.35C762.905 215.919 762.69 215.581 762.258 215.337C761.835 215.085 761.152 214.861 760.208 214.666C757.066 214.006 755.496 212.672 755.496 210.662C755.496 209.49 755.98 208.513 756.948 207.732C757.925 206.943 759.198 206.548 760.769 206.548C762.445 206.548 763.784 206.943 764.785 207.732C765.794 208.521 766.299 209.547 766.299 210.808H762.771C762.771 210.304 762.608 209.889 762.283 209.563C761.957 209.229 761.449 209.062 760.757 209.062C760.163 209.062 759.703 209.197 759.377 209.465C759.052 209.734 758.889 210.076 758.889 210.491C758.889 210.881 759.072 211.199 759.438 211.443C759.813 211.679 760.439 211.886 761.318 212.065C762.197 212.236 762.938 212.432 763.54 212.651C765.404 213.335 766.335 214.519 766.335 216.204C766.335 217.408 765.819 218.385 764.785 219.133C763.752 219.874 762.417 220.244 760.781 220.244C759.674 220.244 758.69 220.049 757.827 219.658C756.973 219.259 756.301 218.718 755.813 218.035C755.325 217.343 755.081 216.598 755.081 215.801H758.425C758.458 216.427 758.69 216.908 759.121 217.241C759.552 217.575 760.13 217.742 760.854 217.742C761.53 217.742 762.039 217.616 762.38 217.363C762.73 217.103 762.905 216.765 762.905 216.35ZM774.697 220.244C772.76 220.244 771.182 219.65 769.961 218.462C768.748 217.274 768.142 215.691 768.142 213.713V213.372C768.142 212.045 768.398 210.861 768.911 209.819C769.424 208.77 770.148 207.964 771.084 207.402C772.028 206.833 773.102 206.548 774.307 206.548C776.113 206.548 777.533 207.118 778.567 208.257C779.609 209.396 780.129 211.012 780.129 213.103V214.543H771.719C771.833 215.406 772.174 216.098 772.744 216.619C773.322 217.139 774.05 217.4 774.929 217.4C776.288 217.4 777.35 216.908 778.115 215.923L779.849 217.864C779.32 218.612 778.604 219.198 777.7 219.622C776.797 220.037 775.796 220.244 774.697 220.244ZM774.294 209.404C773.595 209.404 773.025 209.64 772.585 210.112C772.154 210.584 771.877 211.26 771.755 212.139H776.663V211.858C776.646 211.077 776.435 210.474 776.028 210.051C775.621 209.62 775.043 209.404 774.294 209.404ZM788.223 220.244C786.286 220.244 784.707 219.65 783.486 218.462C782.274 217.274 781.667 215.691 781.667 213.713V213.372C781.667 212.045 781.924 210.861 782.437 209.819C782.949 208.77 783.674 207.964 784.609 207.402C785.553 206.833 786.628 206.548 787.832 206.548C789.639 206.548 791.059 207.118 792.092 208.257C793.134 209.396 793.655 211.012 793.655 213.103V214.543H785.244C785.358 215.406 785.7 216.098 786.27 216.619C786.847 217.139 787.576 217.4 788.455 217.4C789.814 217.4 790.876 216.908 791.641 215.923L793.374 217.864C792.845 218.612 792.129 219.198 791.226 219.622C790.322 220.037 789.321 220.244 788.223 220.244ZM787.82 209.404C787.12 209.404 786.55 209.64 786.111 210.112C785.68 210.584 785.403 211.26 785.281 212.139H790.188V211.858C790.172 211.077 789.96 210.474 789.553 210.051C789.146 209.62 788.569 209.404 787.82 209.404ZM805.618 220H802.078V206.792H805.618V220ZM801.87 203.374C801.87 202.845 802.045 202.41 802.395 202.068C802.753 201.726 803.237 201.555 803.848 201.555C804.45 201.555 804.93 201.726 805.288 202.068C805.646 202.41 805.825 202.845 805.825 203.374C805.825 203.911 805.642 204.351 805.276 204.692C804.918 205.034 804.442 205.205 803.848 205.205C803.254 205.205 802.773 205.034 802.407 204.692C802.049 204.351 801.87 203.911 801.87 203.374ZM809.5 220V209.38H807.534V206.792H809.5V205.669C809.5 204.188 809.923 203.04 810.769 202.227C811.624 201.405 812.816 200.994 814.346 200.994C814.834 200.994 815.432 201.075 816.14 201.238L816.104 203.972C815.811 203.899 815.452 203.862 815.029 203.862C813.703 203.862 813.04 204.485 813.04 205.73V206.792H815.664V209.38H813.04V220H809.5ZM828.652 215.007L831.094 206.792H834.878L829.568 222.051L829.275 222.747C828.486 224.472 827.183 225.334 825.369 225.334C824.856 225.334 824.335 225.257 823.806 225.103V222.429L824.343 222.441C825.011 222.441 825.507 222.34 825.833 222.136C826.166 221.933 826.427 221.595 826.614 221.123L827.029 220.037L822.402 206.792H826.199L828.652 215.007ZM835.525 213.274C835.525 211.964 835.777 210.796 836.282 209.771C836.786 208.745 837.511 207.952 838.455 207.39C839.407 206.829 840.509 206.548 841.763 206.548C843.545 206.548 844.998 207.093 846.121 208.184C847.252 209.274 847.882 210.755 848.013 212.627L848.037 213.53C848.037 215.557 847.472 217.184 846.34 218.413C845.209 219.634 843.691 220.244 841.787 220.244C839.883 220.244 838.361 219.634 837.222 218.413C836.09 217.192 835.525 215.532 835.525 213.433V213.274ZM839.053 213.53C839.053 214.784 839.289 215.744 839.761 216.411C840.233 217.07 840.908 217.4 841.787 217.4C842.642 217.4 843.309 217.074 843.789 216.423C844.269 215.764 844.509 214.714 844.509 213.274C844.509 212.045 844.269 211.093 843.789 210.417C843.309 209.742 842.633 209.404 841.763 209.404C840.9 209.404 840.233 209.742 839.761 210.417C839.289 211.085 839.053 212.122 839.053 213.53ZM858.12 218.657C857.249 219.715 856.045 220.244 854.507 220.244C853.091 220.244 852.008 219.837 851.26 219.023C850.519 218.21 850.141 217.017 850.125 215.447V206.792H853.652V215.325C853.652 216.7 854.279 217.388 855.532 217.388C856.729 217.388 857.55 216.973 857.998 216.143V206.792H861.538V220H858.218L858.12 218.657ZM881.912 215.203L883.645 206.792H887.051L883.682 220H880.728L878.225 211.687L875.723 220H872.781L869.412 206.792H872.817L874.539 215.19L876.956 206.792H879.507L881.912 215.203ZM888.259 213.274C888.259 211.964 888.512 210.796 889.016 209.771C889.521 208.745 890.245 207.952 891.189 207.39C892.141 206.829 893.244 206.548 894.497 206.548C896.279 206.548 897.732 207.093 898.855 208.184C899.986 209.274 900.617 210.755 900.747 212.627L900.771 213.53C900.771 215.557 900.206 217.184 899.075 218.413C897.944 219.634 896.426 220.244 894.521 220.244C892.617 220.244 891.095 219.634 889.956 218.413C888.825 217.192 888.259 215.532 888.259 213.433V213.274ZM891.787 213.53C891.787 214.784 892.023 215.744 892.495 216.411C892.967 217.07 893.643 217.4 894.521 217.4C895.376 217.4 896.043 217.074 896.523 216.423C897.004 215.764 897.244 214.714 897.244 213.274C897.244 212.045 897.004 211.093 896.523 210.417C896.043 209.742 895.368 209.404 894.497 209.404C893.634 209.404 892.967 209.742 892.495 210.417C892.023 211.085 891.787 212.122 891.787 213.53ZM906.191 206.792L906.301 208.318C907.245 207.138 908.511 206.548 910.098 206.548C911.497 206.548 912.539 206.959 913.223 207.781C913.906 208.603 914.256 209.832 914.272 211.467V220H910.745V211.553C910.745 210.804 910.582 210.263 910.256 209.929C909.931 209.587 909.39 209.417 908.633 209.417C907.64 209.417 906.895 209.84 906.399 210.686V220H902.871V206.792H906.191Z" fill="black" fill-opacity="0.55"/>
<path d="M402.204 190.007L404.645 181.792H408.429L403.119 197.051L402.826 197.747C402.037 199.472 400.735 200.334 398.92 200.334C398.407 200.334 397.886 200.257 397.357 200.103V197.429L397.895 197.441C398.562 197.441 399.058 197.34 399.384 197.136C399.717 196.933 399.978 196.595 400.165 196.123L400.58 195.037L395.954 181.792H399.75L402.204 190.007ZM409.076 188.274C409.076 186.964 409.328 185.796 409.833 184.771C410.338 183.745 411.062 182.952 412.006 182.39C412.958 181.829 414.061 181.548 415.314 181.548C417.096 181.548 418.549 182.093 419.672 183.184C420.803 184.274 421.434 185.755 421.564 187.627L421.588 188.53C421.588 190.557 421.023 192.184 419.892 193.413C418.76 194.634 417.243 195.244 415.338 195.244C413.434 195.244 411.912 194.634 410.773 193.413C409.642 192.192 409.076 190.532 409.076 188.433V188.274ZM412.604 188.53C412.604 189.784 412.84 190.744 413.312 191.411C413.784 192.07 414.459 192.4 415.338 192.4C416.193 192.4 416.86 192.074 417.34 191.423C417.82 190.764 418.061 189.714 418.061 188.274C418.061 187.045 417.82 186.093 417.34 185.417C416.86 184.742 416.185 184.404 415.314 184.404C414.451 184.404 413.784 184.742 413.312 185.417C412.84 186.085 412.604 187.122 412.604 188.53ZM431.671 193.657C430.801 194.715 429.596 195.244 428.058 195.244C426.642 195.244 425.56 194.837 424.811 194.023C424.07 193.21 423.692 192.017 423.676 190.447V181.792H427.204V190.325C427.204 191.7 427.83 192.388 429.083 192.388C430.28 192.388 431.102 191.973 431.549 191.143V181.792H435.089V195H431.769L431.671 193.657ZM447.284 181.792L447.394 183.269C448.33 182.122 449.595 181.548 451.19 181.548C452.891 181.548 454.059 182.219 454.694 183.562C455.622 182.219 456.944 181.548 458.661 181.548C460.093 181.548 461.16 181.967 461.859 182.805C462.559 183.635 462.909 184.889 462.909 186.565V195H459.369V186.577C459.369 185.828 459.223 185.283 458.93 184.941C458.637 184.591 458.12 184.417 457.379 184.417C456.321 184.417 455.589 184.921 455.182 185.93L455.194 195H451.667V186.589C451.667 185.824 451.516 185.271 451.215 184.929C450.914 184.587 450.401 184.417 449.677 184.417C448.676 184.417 447.951 184.832 447.504 185.662V195H443.976V181.792H447.284ZM473.285 195C473.122 194.683 473.004 194.288 472.931 193.816C472.077 194.768 470.966 195.244 469.599 195.244C468.305 195.244 467.23 194.87 466.376 194.121C465.53 193.372 465.106 192.428 465.106 191.289C465.106 189.889 465.623 188.815 466.657 188.066C467.698 187.318 469.2 186.939 471.161 186.931H472.785V186.174C472.785 185.564 472.626 185.076 472.309 184.709C471.999 184.343 471.507 184.16 470.832 184.16C470.237 184.16 469.77 184.303 469.428 184.587C469.094 184.872 468.927 185.263 468.927 185.759H465.399C465.399 184.994 465.635 184.286 466.107 183.635C466.579 182.984 467.247 182.476 468.109 182.109C468.972 181.735 469.94 181.548 471.015 181.548C472.642 181.548 473.932 181.959 474.884 182.781C475.845 183.595 476.325 184.742 476.325 186.223V191.948C476.333 193.201 476.508 194.15 476.85 194.792V195H473.285ZM470.368 192.546C470.889 192.546 471.369 192.432 471.808 192.205C472.248 191.969 472.573 191.655 472.785 191.265V188.994H471.466C469.7 188.994 468.76 189.604 468.646 190.825L468.634 191.033C468.634 191.472 468.789 191.834 469.098 192.119C469.407 192.404 469.831 192.546 470.368 192.546ZM478.485 188.298C478.485 186.239 478.945 184.6 479.865 183.379C480.792 182.158 482.058 181.548 483.661 181.548C484.947 181.548 486.009 182.028 486.847 182.988V176.25H490.387V195H487.201L487.03 193.596C486.151 194.695 485.02 195.244 483.637 195.244C482.082 195.244 480.833 194.634 479.889 193.413C478.953 192.184 478.485 190.479 478.485 188.298ZM482.013 188.555C482.013 189.792 482.229 190.74 482.66 191.399C483.091 192.058 483.718 192.388 484.54 192.388C485.631 192.388 486.4 191.928 486.847 191.008V185.796C486.408 184.876 485.647 184.417 484.564 184.417C482.864 184.417 482.013 185.796 482.013 188.555ZM499.201 195.244C497.264 195.244 495.685 194.65 494.464 193.462C493.252 192.274 492.646 190.691 492.646 188.713V188.372C492.646 187.045 492.902 185.861 493.415 184.819C493.927 183.77 494.652 182.964 495.587 182.402C496.531 181.833 497.606 181.548 498.81 181.548C500.617 181.548 502.037 182.118 503.07 183.257C504.112 184.396 504.633 186.012 504.633 188.103V189.543H496.222C496.336 190.406 496.678 191.098 497.248 191.619C497.825 192.139 498.554 192.4 499.433 192.4C500.792 192.4 501.854 191.908 502.619 190.923L504.352 192.864C503.823 193.612 503.107 194.198 502.204 194.622C501.3 195.037 500.299 195.244 499.201 195.244ZM498.798 184.404C498.098 184.404 497.528 184.64 497.089 185.112C496.658 185.584 496.381 186.26 496.259 187.139H501.166V186.858C501.15 186.077 500.938 185.474 500.531 185.051C500.124 184.62 499.547 184.404 498.798 184.404ZM517.096 178.545V181.792H519.354V184.38H517.096V190.972C517.096 191.46 517.19 191.81 517.377 192.021C517.564 192.233 517.922 192.339 518.451 192.339C518.842 192.339 519.188 192.31 519.489 192.253V194.927C518.797 195.138 518.085 195.244 517.353 195.244C514.879 195.244 513.617 193.995 513.568 191.497V184.38H511.64V181.792H513.568V178.545H517.096ZM524.762 183.232C525.698 182.109 526.874 181.548 528.29 181.548C531.155 181.548 532.607 183.212 532.648 186.541V195H529.12V186.638C529.12 185.881 528.957 185.324 528.632 184.966C528.306 184.6 527.765 184.417 527.008 184.417C525.975 184.417 525.226 184.815 524.762 185.613V195H521.234V176.25H524.762V183.232ZM541.388 195.244C539.451 195.244 537.873 194.65 536.652 193.462C535.439 192.274 534.833 190.691 534.833 188.713V188.372C534.833 187.045 535.089 185.861 535.602 184.819C536.115 183.77 536.839 182.964 537.775 182.402C538.719 181.833 539.793 181.548 540.998 181.548C542.804 181.548 544.224 182.118 545.258 183.257C546.299 184.396 546.82 186.012 546.82 188.103V189.543H538.41C538.524 190.406 538.865 191.098 539.435 191.619C540.013 192.139 540.741 192.4 541.62 192.4C542.979 192.4 544.041 191.908 544.806 190.923L546.54 192.864C546.011 193.612 545.294 194.198 544.391 194.622C543.488 195.037 542.487 195.244 541.388 195.244ZM540.985 184.404C540.285 184.404 539.716 184.64 539.276 185.112C538.845 185.584 538.568 186.26 538.446 187.139H543.354V186.858C543.337 186.077 543.126 185.474 542.719 185.051C542.312 184.62 541.734 184.404 540.985 184.404ZM566.547 190.203L568.28 181.792H571.686L568.317 195H565.363L562.86 186.687L560.358 195H557.416L554.047 181.792H557.453L559.174 190.19L561.591 181.792H564.142L566.547 190.203ZM572.895 188.274C572.895 186.964 573.147 185.796 573.651 184.771C574.156 183.745 574.88 182.952 575.824 182.39C576.776 181.829 577.879 181.548 579.132 181.548C580.915 181.548 582.367 182.093 583.49 183.184C584.621 184.274 585.252 185.755 585.382 187.627L585.407 188.53C585.407 190.557 584.841 192.184 583.71 193.413C582.579 194.634 581.061 195.244 579.157 195.244C577.252 195.244 575.731 194.634 574.591 193.413C573.46 192.192 572.895 190.532 572.895 188.433V188.274ZM576.422 188.53C576.422 189.784 576.658 190.744 577.13 191.411C577.602 192.07 578.278 192.4 579.157 192.4C580.011 192.4 580.679 192.074 581.159 191.423C581.639 190.764 581.879 189.714 581.879 188.274C581.879 187.045 581.639 186.093 581.159 185.417C580.679 184.742 580.003 184.404 579.132 184.404C578.27 184.404 577.602 184.742 577.13 185.417C576.658 186.085 576.422 187.122 576.422 188.53ZM595.001 185.1C594.521 185.035 594.098 185.002 593.732 185.002C592.397 185.002 591.522 185.454 591.107 186.357V195H587.58V181.792H590.912L591.01 183.367C591.718 182.154 592.698 181.548 593.952 181.548C594.342 181.548 594.708 181.601 595.05 181.707L595.001 185.1ZM600.434 195H596.894V176.25H600.434V195ZM602.802 188.298C602.802 186.239 603.262 184.6 604.181 183.379C605.109 182.158 606.374 181.548 607.978 181.548C609.263 181.548 610.325 182.028 611.164 182.988V176.25H614.704V195H611.518L611.347 193.596C610.468 194.695 609.337 195.244 607.953 195.244C606.399 195.244 605.15 194.634 604.206 193.413C603.27 192.184 602.802 190.479 602.802 188.298ZM606.33 188.555C606.33 189.792 606.545 190.74 606.977 191.399C607.408 192.058 608.035 192.388 608.856 192.388C609.947 192.388 610.716 191.928 611.164 191.008V185.796C610.724 184.876 609.963 184.417 608.881 184.417C607.18 184.417 606.33 185.796 606.33 188.555ZM438.153 220C437.991 219.683 437.873 219.288 437.799 218.816C436.945 219.768 435.834 220.244 434.467 220.244C433.173 220.244 432.099 219.87 431.244 219.121C430.398 218.372 429.975 217.428 429.975 216.289C429.975 214.889 430.491 213.815 431.525 213.066C432.567 212.318 434.068 211.939 436.029 211.931H437.653V211.174C437.653 210.564 437.494 210.076 437.177 209.709C436.868 209.343 436.375 209.16 435.7 209.16C435.106 209.16 434.638 209.303 434.296 209.587C433.962 209.872 433.795 210.263 433.795 210.759H430.268C430.268 209.994 430.504 209.286 430.976 208.635C431.448 207.984 432.115 207.476 432.978 207.109C433.84 206.735 434.809 206.548 435.883 206.548C437.51 206.548 438.8 206.959 439.752 207.781C440.713 208.595 441.193 209.742 441.193 211.223V216.948C441.201 218.201 441.376 219.15 441.718 219.792V220H438.153ZM435.236 217.546C435.757 217.546 436.237 217.432 436.676 217.205C437.116 216.969 437.441 216.655 437.653 216.265V213.994H436.334C434.569 213.994 433.629 214.604 433.515 215.825L433.502 216.033C433.502 216.472 433.657 216.834 433.966 217.119C434.276 217.404 434.699 217.546 435.236 217.546ZM462.03 213.518C462.03 215.634 461.579 217.286 460.675 218.474C459.772 219.654 458.511 220.244 456.891 220.244C455.459 220.244 454.315 219.695 453.461 218.596L453.302 220H450.128V201.25H453.656V207.976C454.47 207.024 455.54 206.548 456.867 206.548C458.478 206.548 459.739 207.142 460.651 208.33C461.57 209.51 462.03 211.174 462.03 213.323V213.518ZM458.502 213.262C458.502 211.927 458.291 210.955 457.868 210.344C457.444 209.726 456.814 209.417 455.976 209.417C454.853 209.417 454.079 209.876 453.656 210.796V216.008C454.088 216.936 454.869 217.4 456 217.4C457.139 217.4 457.888 216.838 458.246 215.715C458.417 215.178 458.502 214.36 458.502 213.262ZM470.294 220.244C468.358 220.244 466.779 219.65 465.558 218.462C464.346 217.274 463.739 215.691 463.739 213.713V213.372C463.739 212.045 463.996 210.861 464.508 209.819C465.021 208.77 465.745 207.964 466.681 207.402C467.625 206.833 468.699 206.548 469.904 206.548C471.71 206.548 473.131 207.118 474.164 208.257C475.206 209.396 475.727 211.012 475.727 213.103V214.543H467.316C467.43 215.406 467.772 216.098 468.341 216.619C468.919 217.139 469.647 217.4 470.526 217.4C471.885 217.4 472.947 216.908 473.712 215.923L475.446 217.864C474.917 218.612 474.201 219.198 473.297 219.622C472.394 220.037 471.393 220.244 470.294 220.244ZM469.892 209.404C469.192 209.404 468.622 209.64 468.183 210.112C467.751 210.584 467.475 211.26 467.353 212.139H472.26V211.858C472.243 211.077 472.032 210.474 471.625 210.051C471.218 209.62 470.64 209.404 469.892 209.404ZM481.964 203.545V206.792H484.223V209.38H481.964V215.972C481.964 216.46 482.058 216.81 482.245 217.021C482.432 217.233 482.79 217.339 483.319 217.339C483.71 217.339 484.056 217.31 484.357 217.253V219.927C483.665 220.138 482.953 220.244 482.221 220.244C479.747 220.244 478.485 218.995 478.437 216.497V209.38H476.508V206.792H478.437V203.545H481.964ZM490.412 203.545V206.792H492.67V209.38H490.412V215.972C490.412 216.46 490.505 216.81 490.692 217.021C490.88 217.233 491.238 217.339 491.767 217.339C492.157 217.339 492.503 217.31 492.804 217.253V219.927C492.112 220.138 491.4 220.244 490.668 220.244C488.194 220.244 486.933 218.995 486.884 216.497V209.38H484.955V206.792H486.884V203.545H490.412ZM500.714 220.244C498.778 220.244 497.199 219.65 495.978 218.462C494.765 217.274 494.159 215.691 494.159 213.713V213.372C494.159 212.045 494.416 210.861 494.928 209.819C495.441 208.77 496.165 207.964 497.101 207.402C498.045 206.833 499.119 206.548 500.324 206.548C502.13 206.548 503.55 207.118 504.584 208.257C505.626 209.396 506.146 211.012 506.146 213.103V214.543H497.736C497.85 215.406 498.192 216.098 498.761 216.619C499.339 217.139 500.067 217.4 500.946 217.4C502.305 217.4 503.367 216.908 504.132 215.923L505.866 217.864C505.337 218.612 504.621 219.198 503.717 219.622C502.814 220.037 501.813 220.244 500.714 220.244ZM500.312 209.404C499.612 209.404 499.042 209.64 498.603 210.112C498.171 210.584 497.895 211.26 497.772 212.139H502.68V211.858C502.663 211.077 502.452 210.474 502.045 210.051C501.638 209.62 501.06 209.404 500.312 209.404ZM515.583 210.1C515.102 210.035 514.679 210.002 514.313 210.002C512.978 210.002 512.104 210.454 511.688 211.357V220H508.161V206.792H511.493L511.591 208.367C512.299 207.154 513.279 206.548 514.533 206.548C514.923 206.548 515.29 206.601 515.631 206.707L515.583 210.1ZM535.407 213.518C535.407 215.553 534.943 217.184 534.015 218.413C533.096 219.634 531.85 220.244 530.28 220.244C528.945 220.244 527.867 219.78 527.045 218.853V225.078H523.517V206.792H526.789L526.911 208.086C527.765 207.061 528.88 206.548 530.255 206.548C531.883 206.548 533.148 207.15 534.052 208.354C534.955 209.559 535.407 211.219 535.407 213.335V213.518ZM531.879 213.262C531.879 212.033 531.659 211.085 531.22 210.417C530.788 209.75 530.158 209.417 529.328 209.417C528.221 209.417 527.46 209.84 527.045 210.686V216.094C527.476 216.965 528.245 217.4 529.352 217.4C531.037 217.4 531.879 216.021 531.879 213.262ZM541.327 220H537.787V201.25H541.327V220ZM551.898 220C551.736 219.683 551.618 219.288 551.544 218.816C550.69 219.768 549.579 220.244 548.212 220.244C546.918 220.244 545.844 219.87 544.989 219.121C544.143 218.372 543.72 217.428 543.72 216.289C543.72 214.889 544.236 213.815 545.27 213.066C546.312 212.318 547.813 211.939 549.774 211.931H551.398V211.174C551.398 210.564 551.239 210.076 550.922 209.709C550.613 209.343 550.12 209.16 549.445 209.16C548.851 209.16 548.383 209.303 548.041 209.587C547.707 209.872 547.541 210.263 547.541 210.759H544.013C544.013 209.994 544.249 209.286 544.721 208.635C545.193 207.984 545.86 207.476 546.723 207.109C547.585 206.735 548.554 206.548 549.628 206.548C551.256 206.548 552.545 206.959 553.498 207.781C554.458 208.595 554.938 209.742 554.938 211.223V216.948C554.946 218.201 555.121 219.15 555.463 219.792V220H551.898ZM548.981 217.546C549.502 217.546 549.982 217.432 550.421 217.205C550.861 216.969 551.186 216.655 551.398 216.265V213.994H550.08C548.314 213.994 547.374 214.604 547.26 215.825L547.248 216.033C547.248 216.472 547.402 216.834 547.711 217.119C548.021 217.404 548.444 217.546 548.981 217.546ZM563.141 217.4C563.792 217.4 564.321 217.221 564.728 216.863C565.135 216.505 565.347 216.029 565.363 215.435H568.671C568.663 216.33 568.419 217.152 567.938 217.9C567.458 218.641 566.799 219.219 565.961 219.634C565.131 220.041 564.211 220.244 563.202 220.244C561.314 220.244 559.825 219.646 558.734 218.45C557.644 217.245 557.099 215.585 557.099 213.469V213.237C557.099 211.203 557.64 209.579 558.722 208.367C559.805 207.154 561.29 206.548 563.178 206.548C564.83 206.548 566.152 207.02 567.145 207.964C568.146 208.9 568.655 210.149 568.671 211.711H565.363C565.347 211.028 565.135 210.474 564.728 210.051C564.321 209.62 563.784 209.404 563.117 209.404C562.295 209.404 561.672 209.705 561.249 210.308C560.834 210.902 560.626 211.87 560.626 213.213V213.579C560.626 214.938 560.834 215.915 561.249 216.509C561.664 217.103 562.295 217.4 563.141 217.4ZM576.764 220.244C574.827 220.244 573.249 219.65 572.028 218.462C570.815 217.274 570.209 215.691 570.209 213.713V213.372C570.209 212.045 570.465 210.861 570.978 209.819C571.491 208.77 572.215 207.964 573.151 207.402C574.095 206.833 575.169 206.548 576.374 206.548C578.18 206.548 579.6 207.118 580.634 208.257C581.675 209.396 582.196 211.012 582.196 213.103V214.543H573.786C573.9 215.406 574.241 216.098 574.811 216.619C575.389 217.139 576.117 217.4 576.996 217.4C578.355 217.4 579.417 216.908 580.182 215.923L581.916 217.864C581.387 218.612 580.67 219.198 579.767 219.622C578.864 220.037 577.863 220.244 576.764 220.244ZM576.361 209.404C575.661 209.404 575.092 209.64 574.652 210.112C574.221 210.584 573.944 211.26 573.822 212.139H578.729V211.858C578.713 211.077 578.502 210.474 578.095 210.051C577.688 209.62 577.11 209.404 576.361 209.404Z" fill="black" fill-opacity="0.55"/>
<path d="M789.097 134.516H840.903V148.645H789.097V134.516Z" fill="#E6E9ED"/>
<path d="M845.613 125.097V134.516H784.387V125.097H845.613Z" fill="#B4DD7F"/>
<path d="M796.161 73.2904H847.968V93.9182C847.968 100.301 845.424 106.447 840.903 110.968V125.097H789.097V115.678C786.836 113.417 785.07 110.756 783.868 107.86C782.668 104.939 782.032 101.831 782.032 98.6279V63.8711C782.032 61.2805 784.151 59.1614 786.742 59.1614C789.332 59.1614 791.687 60.2215 793.406 61.9164C795.101 63.6353 796.161 65.9902 796.161 68.5807V73.2904Z" fill="#F0D0B4"/>
<path d="M885.645 49.7418V73.2902H862.097V7.35474H885.645V30.9031C880.441 30.9031 876.226 35.1184 876.226 40.3225C876.226 45.5266 880.441 49.7418 885.645 49.7418Z" fill="#14B666"/>
<path d="M767.903 63.8709V73.2902H744.355V49.7418C749.559 49.7418 753.774 45.5266 753.774 40.3225C753.774 35.1184 749.559 30.9031 744.355 30.9031V7.35474H767.903V63.8709Z" fill="#14B666"/>
<path d="M862.097 63.8709V73.2902H796.161V68.5805C796.161 65.99 795.101 63.6352 793.406 61.9162C791.687 60.2213 789.333 59.1612 786.742 59.1612C784.151 59.1612 782.032 61.2803 782.032 63.8709V73.2902H767.903V7.35474H862.097V63.8709Z" fill="#097227"/>
<path d="M885.645 33.2581H888V5H742V33.2581H744.355C748.249 33.2581 751.419 36.4281 751.419 40.3226C751.419 44.217 748.249 47.3871 744.355 47.3871H742V75.6452H779.677V98.6209C779.677 105.361 782.178 111.716 786.742 116.626V122.742H782.032V136.871H786.742V151H843.258V136.871H847.968V122.742H843.258V111.916C847.822 107.007 850.323 100.652 850.323 93.9113V75.6452H888V47.3871H885.645C881.751 47.3871 878.581 44.217 878.581 40.3226C878.581 36.4281 881.751 33.2581 885.645 33.2581ZM838.548 146.29H791.452V136.871H838.548V146.29ZM843.258 132.161H786.742V127.452H843.258V132.161ZM845.613 93.9113C845.613 99.7259 843.35 105.191 839.238 109.303L838.548 109.993V122.742H791.452V114.702L790.762 114.012C786.65 109.901 784.387 104.436 784.387 98.6209V63.871C784.387 62.574 785.445 61.5161 786.742 61.5161C790.636 61.5161 793.806 64.6862 793.806 68.5806V83.8871L794.748 84.5931C800.056 88.5761 803.226 94.9128 803.226 101.548H807.935C807.935 93.8388 804.437 86.4581 798.516 81.5679V75.6452H845.613V93.9113ZM883.29 51.8588V70.9355H864.452V63.871H859.742V70.9355H798.516V68.5806C798.516 62.0887 793.234 56.8064 786.742 56.8064C782.847 56.8064 779.677 59.9765 779.677 63.871V70.9355H770.258V63.871H765.548V70.9355H746.71V51.8588C752.076 50.7664 756.129 46.0096 756.129 40.3226C756.129 34.6356 752.076 29.8787 746.71 28.7864V9.70968H765.548V16.7742H770.258V9.70968H859.742V16.7742H864.452V9.70968H883.29V28.7864C877.924 29.8787 873.871 34.6379 873.871 40.3226C873.871 46.0073 877.924 50.7664 883.29 51.8588Z" fill="black"/>
<path d="M765.548 21.4839H770.258V30.9032H765.548V21.4839Z" fill="black"/>
<path d="M765.548 35.6128H770.258V45.0321H765.548V35.6128Z" fill="black"/>
<path d="M765.548 49.7419H770.258V59.1613H765.548V49.7419Z" fill="black"/>
<path d="M859.742 21.4839H864.451V30.9032H859.742V21.4839Z" fill="black"/>
<path d="M859.742 35.6128H864.451V45.0321H859.742V35.6128Z" fill="black"/>
<path d="M859.742 49.7419H864.451V59.1613H859.742V49.7419Z" fill="black"/>
<path d="M869.161 96.8386H873.871V101.548H869.161V96.8386Z" fill="#4ACB8B"/>
<path d="M869.161 106.258H873.871V110.968H869.161V106.258Z" fill="#4ACB8B"/>
<path d="M873.871 101.548H878.581V106.258H873.871V101.548Z" fill="#4ACB8B"/>
<path d="M864.452 101.548H869.161V106.258H864.452V101.548Z" fill="#4ACB8B"/>
<path d="M758.484 80.3547H763.194V85.0644H758.484V80.3547Z" fill="#4ACB8B"/>
<path d="M758.484 89.7742H763.194V94.4838H758.484V89.7742Z" fill="#4ACB8B"/>
<path d="M763.193 85.0645H767.903V89.7741H763.193V85.0645Z" fill="#4ACB8B"/>
<path d="M753.774 85.0645H758.484V89.7741H753.774V85.0645Z" fill="#4ACB8B"/>
<path d="M751.419 132.161H756.129V136.871H751.419V132.161Z" fill="#4ACB8B"/>
<path d="M751.419 141.581H756.129V146.29H751.419V141.581Z" fill="#4ACB8B"/>
<path d="M756.129 136.871H760.839V141.581H756.129V136.871Z" fill="#4ACB8B"/>
<path d="M746.709 136.871H751.419V141.581H746.709V136.871Z" fill="#4ACB8B"/>
<path d="M857.387 132.161H862.097V136.871H857.387V132.161Z" fill="#4ACB8B"/>
<path d="M857.387 141.581H862.097V146.29H857.387V141.581Z" fill="#4ACB8B"/>
<path d="M862.097 136.871H866.806V141.581H862.097V136.871Z" fill="#4ACB8B"/>
<path d="M852.677 136.871H857.387V141.581H852.677V136.871Z" fill="#4ACB8B"/>
<path d="M794.557 24.084L791.779 23.0631L785.292 31.4398L785.49 20.7524L783.875 20.1592L777.201 28.4669L777.586 17.8485L774.808 16.8276L774.804 31.7413L776.907 32.5139L780.006 29.0077L782.915 25.3249L782.78 29.9841L782.895 34.7143L784.998 35.4868L794.557 24.084ZM795.602 39.3831L800.431 26.2421L797.971 25.3385L793.143 38.4795L795.602 39.3831ZM810.275 39.1066L806.83 28.5932L804.821 27.8552L799.992 40.9962L802.47 41.9067L805.726 33.0459L809.372 44.4638L809.379 44.4451L810.918 45.0107L815.754 31.8509L813.276 30.9404L810.275 39.1066ZM825.535 44.7137L822.09 34.2003L820.081 33.4623L815.253 46.6033L817.731 47.5138L820.986 38.653L824.632 50.0709L824.639 50.0522L826.179 50.6178L831.014 37.458L828.536 36.5475L825.535 44.7137ZM841.021 53.3016L833.644 50.5908L834.734 47.6246L841.848 50.2389L842.697 47.9298L835.582 45.3156L836.692 42.2931L844.07 45.004L844.953 42.601L835.116 38.9866C833.509 43.3607 831.895 47.7536 830.288 52.1276L840.125 55.7421L841.021 53.3016ZM855.637 61.2501L853.306 55.3011C855.989 55.7116 857.484 54.1941 858.146 52.3919C858.981 50.1204 858.106 47.4553 855.016 46.2984C852.932 45.5327 850.855 44.7483 848.771 43.9827L843.936 57.1425L846.414 58.053L848.028 53.6601L850.412 54.5361L852.628 60.3361L855.575 61.419L855.637 61.2501ZM854.167 48.6074C855.726 49.18 856.034 50.4865 855.648 51.5377C855.261 52.589 854.199 53.392 852.622 52.8126L848.849 51.4261L850.394 47.221L854.167 48.6074Z" fill="white"/>
</svg>
